<?xml version="1.0" encoding="UTF-8" standalone="no"?>
<!-- Created with Inkscape (http://www.inkscape.org/) -->

<svg
   xmlns:dc="http://purl.org/dc/elements/1.1/"
   xmlns:cc="http://creativecommons.org/ns#"
   xmlns:rdf="http://www.w3.org/1999/02/22-rdf-syntax-ns#"
   xmlns:svg="http://www.w3.org/2000/svg"
   xmlns="http://www.w3.org/2000/svg"
   xmlns:sodipodi="http://sodipodi.sourceforge.net/DTD/sodipodi-0.dtd"
   xmlns:inkscape="http://www.inkscape.org/namespaces/inkscape"
   width="2300"
   height="2300"
   id="svg2"
   version="1.1"
   inkscape:version="0.48.2 r9819"
   sodipodi:docname="Neues Dokument 1">
  <defs
     id="defs4" />
  <sodipodi:namedview
     id="base"
     pagecolor="#ffffff"
     bordercolor="#666666"
     borderopacity="1.0"
     inkscape:pageopacity="0.0"
     inkscape:pageshadow="2"
     inkscape:zoom="0.175"
     inkscape:cx="779.10099"
     inkscape:cy="1426.8001"
     inkscape:document-units="px"
     inkscape:current-layer="layer1"
     showgrid="false"
     fit-margin-top="1"
     fit-margin-left="1"
     fit-margin-right="1"
     fit-margin-bottom="1"
     inkscape:window-width="1276"
     inkscape:window-height="756"
     inkscape:window-x="4"
     inkscape:window-y="0"
     inkscape:window-maximized="1" />
  <metadata
     id="metadata7">
    <rdf:RDF>
      <cc:Work
         rdf:about="">
        <dc:format>image/svg+xml</dc:format>
        <dc:type
           rdf:resource="http://purl.org/dc/dcmitype/StillImage" />
        <dc:title></dc:title>
      </cc:Work>
    </rdf:RDF>
  </metadata>
  <g
     inkscape:label="Ebene 1"
     inkscape:groupmode="layer"
     id="layer1"
     transform="translate(537.20331,531.40184)">
    <path
       style="fill:#000000"
       d="m 820.49574,1766.4247 c -2.0327,-0.7258 -5.5979,-1.6238 -7.9228,-1.9956 -2.3248,-0.3717 -6.2867,-1.7152 -8.8042,-2.9855 -2.5175,-1.2704 -6.6022,-3.3381 -9.0772,-4.5951 -2.475,-1.2569 -6.6031,-3.3343 -9.1735,-4.6163 -2.5704,-1.2821 -7.5204,-4.876 -11,-7.9865 -5.7512,-5.1413 -8.7044,-7.3146 -21.1356,-15.554 -4.0455,-2.6814 -15.7082,-15.1549 -17.7675,-19.0026 -0.6203,-1.1592 -2.657,-4.1108 -4.5259,-6.5592 -1.8689,-2.4484 -3.6807,-5.6545 -4.0262,-7.1247 -0.7379,-3.1398 -3.5448,-8.0084 -8.0156,-13.9031 -1.7645,-2.3265 -3.4856,-5.2515 -3.8246,-6.5 -0.6226,-2.293 -3.88291,-9.4454 -8.13551,-17.8472 -1.2742,-2.5175 -2.6206,-6.5675 -2.992,-9 -0.3714,-2.4325 -1.4682,-5.9978 -2.4374,-7.9228 -2.7245,-5.4117 -6.3063,-12.0538 -9.1672,-17 -1.4316,-2.475 -2.9321,-6.0732 -3.3344,-7.996 -0.9407,-4.4954 -5.1342,-14.3678 -11.1084,-26.1514 -1.2959,-2.556 -2.3562,-5.2111 -2.3562,-5.9001 0,-0.689 -1.1839,-3.7726 -2.6309,-6.8526 -1.4469,-3.0799 -3.7617,-8.0749 -5.1438,-11.0999 -1.3821,-3.025 -3.514,-7.525 -4.7374,-10 -1.2235,-2.475 -2.4992,-5.625 -2.8349,-7 -0.3357,-1.375 -1.63247,-3.762 -2.8817,-5.3044 l -2.27133,-2.8044 -15.5,-0.039 c -14.94884,-0.038 -38.75942,-1.8072 -51.76584,-3.846 -3.44621,-0.5402 -18.29621,-1.1506 -33,-1.3564 -28.50115,-0.399 -31.4187,-0.7373 -53.73416,-6.2311 -3.3,-0.8124 -8.025,-1.9068 -10.5,-2.4319 -2.475,-0.5251 -6.525,-1.8342 -9,-2.9092 -2.475,-1.075 -9.9,-3.0919 -16.5,-4.482 -56.38479,-11.8758 -59.27046,-12.5994 -85.59876,-21.4652 -14.52068,-4.8897 -32.02624,-11.0284 -38.90124,-13.6416 -19.13591,-7.2735 -23.05006,-8.6263 -29,-10.0228 -7.59669,-1.7829 -14.54988,-4.127 -20.75948,-6.9984 -2.89272,-1.3376 -7.73449,-3.557 -10.75949,-4.932 -13.10582,-5.9572 -16.2907,-7.4189 -21.58094,-9.9042 -3.07996,-1.447 -6.25435,-2.6309 -7.05422,-2.6309 -0.79987,0 -3.50297,-1.2992 -6.00689,-2.8872 -2.50392,-1.5879 -5.52603,-3.1961 -6.71579,-3.5737 -1.18976,-0.3776 -4.0667,-2.1303 -6.39319,-3.8948 -5.70825,-4.3294 -10.33965,-7.113 -17.89088,-10.753 -8.72269,-4.2047 -13.28002,-6.517 -20.67217,-10.4887 -3.48318,-1.8714 -6.88258,-3.4026 -7.55422,-3.4026 -1.20227,0 -5.26292,-2.5391 -15.11273,-9.4498 -2.75,-1.9294 -7.25,-5.0698 -10,-6.9787 -7.14355,-4.9584 -14.53199,-10.383 -21.209,-15.5715 -9.72066,-7.5536 -23.10319,-16.4882 -26.14046,-17.4522 -1.2048,-0.3824 -4.09405,-2.1246 -6.42054,-3.8715 -2.3265,-1.747 -6.03,-4.3964 -8.23,-5.8877 -20.85635,-14.1372 -38.2171,-29.7005 -45.13921,-40.4656 -1.83088,-2.8474 -5.59592,-7.0886 -8.36675,-9.425 -2.77082,-2.3364 -6.31154,-6.3068 -7.86826,-8.823 -1.55671,-2.5163 -5.03435,-7.0106 -7.72808,-9.9873 -2.69374,-2.9768 -6.2477,-7.4549 -7.8977,-9.9513 -1.65,-2.4963 -6.06461,-7.0358 -9.81025,-10.0876 -3.74563,-3.0518 -8.02063,-7.3881 -9.5,-9.6361 -2.58007,-3.9206 -6.16763,-9.1199 -13.73995,-19.9127 -6.99855,-9.975 -9.4498,-13.9166 -9.4498,-15.1953 0,-0.717 -1.07966,-3.4414 -2.39923,-6.0542 -5.2194,-10.3345 -7.64213,-15.9297 -8.6019,-19.8659 -0.5519,-2.2634 -2.40005,-5.8634 -4.10699,-8 -1.70695,-2.1365 -4.12819,-5.9096 -5.38055,-8.3846 -1.25236,-2.475 -3.90664,-7.425 -5.8984,-11 -1.99176,-3.575 -4.34095,-8.075 -5.22042,-10 -0.87947,-1.925 -2.63793,-5.525 -3.90768,-8 -1.26976,-2.475 -2.62001,-6.3 -3.00055,-8.5 -0.95518,-5.5221 -3.17895,-12.1044 -5.05845,-14.9729 -0.86561,-1.321 -2.19181,-4.5676 -2.94711,-7.2145 -1.70111,-5.9615 -4.22514,-13.6925 -5.97872,-18.3126 -3.55661,-9.3705 -5.77323,-17.0297 -8.87455,-30.6649 -0.77121,-3.3907 -1.67163,-6.6008 -2.00093,-7.1336 -0.32931,-0.5329 -1.05023,-4.1522 -1.60205,-8.0431 -0.55182,-3.8908 -1.7274,-9.0057 -2.6124,-11.3663 -1.46453,-3.9065 -2.46664,-7.5824 -5.25936,-19.2921 -2.79968,-11.7389 -3.45435,-19.0706 -3.78421,-42.37954 -0.19755,-13.9588 -0.8352,-27.1474 -1.41701,-29.3081 -0.58181,-2.1606 -0.97676,-6.2649 -0.87768,-9.1204 0.0991,-2.8556 -0.10887,-11.717 -0.46212,-19.692 -0.60516,-13.6621 0.14807,-25.9934 2.3822,-39 0.5196,-3.025 1.42292,-9.55 2.00737,-14.5 0.58445,-4.95 1.55745,-11.8623 2.16223,-15.3607 0.60477,-3.4984 1.05999,-8.8984 1.0116,-12 -0.0484,-3.1016 0.37298,-10.5893 0.93639,-16.6393 0.56341,-6.05 1.01644,-14.9871 1.00674,-19.8603 -0.01,-4.8731 0.58848,-10.7231 1.32927,-13 0.74079,-2.2768 1.65212,-5.9397 2.02519,-8.1397 0.37306,-2.2 1.76587,-5.8735 3.09511,-8.1632 1.40273,-2.4164 2.84205,-7.1615 3.43024,-11.3088 0.55739,-3.9301 1.62366,-8.3566 2.36949,-9.8368 0.74584,-1.4802 2.15246,-6.0662 3.12583,-10.1912 0.97337,-4.125 2.78954,-9.525 4.03594,-12 3.54042,-7.0303 5.28736,-11.4951 6.01473,-15.3723 0.6136,-3.2708 0.42828,-3.6678 -2.18579,-4.6822 -3.57405,-1.3871 -12.43936,-5.4402 -18.35623,-8.3922 -2.475,-1.2349 -6.0049,-4.227 -7.84421,-6.6492 -6.65867,-8.769 -11.50191,-8.5528 -22.90554,1.0221 -3.8243,3.211 -11.40759,9.1128 -16.85176,13.1151 -5.44417,4.0024 -13.35146,10.1404 -17.57176,13.6401 -10.39226,8.6179 -15.23372,10.6641 -25.32673,10.7039 -11.72236,0.046 -17.21976,-3.1366 -21.42306,-12.4033 -4.2525,-9.3752 -1.5199,-22.5838 7.9054,-38.211 5.35814,-8.884 6.97972,-14.965 4.95416,-18.5787 -2.92116,-5.2114 -5.62116,-5.6424 -19.77036,-3.1564 -6.9664,1.2239 -15.5911,3.4041 -19.1661,4.8447 -5.4292,2.1879 -8.0651,2.6186 -16,2.6146 -8.3796,0 -10.1039,-0.3228 -14.6198,-2.7008 -9.292,-4.8932 -12.9061,-11.4603 -12.1861,-22.1433 0.9177,-13.6163 8.7577,-23.8874 26.114,-34.2117 4.4039,-2.6197 11.9314,-8.4027 16.7277,-12.8512 13.2151,-12.2568 20.005,-17.9127 24.9642,-20.7946 8.9953,-5.2276 12.99996,-11.7567 12.99996,-21.195 0,-4.426 -0.61822,-6.4614 -3.24996,-10.7002 l -3.25,-5.2345 0.064,-23.0819 c 0.051,-18.2974 0.4027,-24.2221 1.6971,-28.582 1.784,-6.0084 3.27129,-13.0427 4.2125,-19.9228 0.33278,-2.4325 1.67426,-6.4825 2.98108,-9 3.13825,-6.0456 5.50159,-12.4161 10.04507,-27.0772 3.52471,-11.3737 4.75972,-14.8379 6.9518,-19.5 3.4113,-7.2551 5.8016,-13.7969 10.0482,-27.5 2.3345,-7.53307 4.60154,-14.31754 6.01472,-18 1.63939,-4.27194 3.90093,-12.62236 5.41659,-20 2.6867,-13.07779 3.29976,-15.56324 4.29966,-17.43158 1.54,-2.8775 4.22164,-12.72043 8.1244,-29.82046 2.22126,-9.73251 5.37759,-51.13051 4.78413,-62.74796 -0.43135,-8.44387 2.69385,-38.0155 5.01991,-47.5 2.01754,-8.2265 2.81993,-12.18552 3.84183,-18.95578 0.59456,-3.93905 2.12307,-8.787 3.52433,-11.17807 1.36094,-2.32226 2.47443,-4.83924 2.47443,-5.59329 0,-1.57456 3.53065,-7.02104 10,-15.42628 5.64803,-7.33815 9.5726,-13.42461 10.4609,-16.22339 0.37762,-1.18976 2.18239,-4.12282 4.01061,-6.51792 1.82822,-2.3951 3.83685,-5.31293 4.46363,-6.48407 0.62677,-1.17115 3.6563,-4.94002 6.73227,-8.37528 3.07598,-3.43525 6.72761,-8.045915 8.11474,-10.245915 1.38713,-2.2 4.73484,-6.43293 7.43935,-9.40651 2.7045,-2.97358 6.39587,-7.71791 8.20303,-10.54296 1.80715,-2.82504 8.07593,-9.86895 13.9306,-15.65314 l 10.64488,-10.51719 0,-10.22976 c 0,-17.41188 1.68656,-28.45808 6.05401,-39.65094 4.79865,-12.29795 8.21843,-23.59379 10.47887,-34.61262 1.40286,-6.83841 1.56749,-10.51119 0.89144,-19.88738 -1.97552,-27.398835 -0.25058,-67.145435 4.68704,-108.000005 1.03469,-8.56117 2.89114,-17.18156 6.67602,-31 1.12985,-4.125 2.75449,-11.325 3.61032,-16 1.91252,-10.4472 17.34775,-57.41444 21.39935,-65.11522 1.62487,-3.08837 4.54091,-8.48837 6.48007,-12 1.93916,-3.51163 3.82019,-7.79875 4.18008,-9.52694 0.35989,-1.72819 2.04218,-5.32819 3.73844,-8 1.69626,-2.67181 3.94907,-6.88284 5.00625,-9.35784 1.05718,-2.475 3.85655,-6.975 6.22082,-10 2.36426,-3.025 8.18939,-11.9721 12.94472,-19.88246 4.75533,-7.91035 10.76338,-17.36035 13.35124,-21 5.94502,-8.36129 21.7859,-24.78164 30.28133,-31.38904 3.575,-2.78049 11.675,-10.094 18,-16.25225 6.325,-6.15824 14.65,-13.63886 18.5,-16.62359 10.33976,-8.01595 32.19505,-23.03964 38.5,-26.46554 3.025,-1.64368 6.4,-3.49951 7.5,-4.12405 1.1,-0.62454 10.55,-5.29817 21,-10.38584 10.45,-5.08767 20.67126,-10.28676 22.71392,-11.55354 2.04265,-1.26677 6.76765,-3.51324 10.5,-4.99215 3.73234,-1.47891 8.53831,-3.78003 10.67993,-5.11359 2.14162,-1.33356 6.19162,-3.23418 9,-4.22359 2.80838,-0.98942 6.88509,-2.56215 9.05935,-3.49497 2.17426,-0.93282 8.02426,-2.96752 13,-4.52156 11.02874,-3.44452 30.25179,-10.09206 37.0468,-12.81118 2.75,-1.10045 8.375,-2.45742 12.5,-3.0155 4.125,-0.55807 13.57472,-2.17829 20.99939,-3.60049 16.43544,-3.14822 34.49262,-4.53437 59.00061,-4.52918 16.51108,0.004 52.00279,2.24418 53.875,3.40126 0.39681,0.24525 8.49522,1.87039 17.99647,3.61143 28.5944,5.23973 62.22925,15.9806 89.18444,28.47995 29.83758,13.83593 45.99402,22.90238 74.44409,41.77547 15.04663,9.98161 50.75553,38.34057 65.53184,52.04358 9.3289,8.65132 34.5538,35.88463 40.4465,43.66683 2.7069,3.575 7.8692,10.12623 11.4717,14.55829 9.4187,11.58758 30.5355,43.93148 42.7259,65.44171 23.6031,41.64857 39.1012,77.7728 49.1228,114.5 13.3923,49.0801 15.175,60.72875 15.9479,104.208685 0.9261,52.09594 -1.7905,76.51162 -14.3505,128.97742 -2.7132,11.33337 -3.3991,16.26016 -3.4109,24.5 -0.015,10.638895 -1.7718,20.566815 -4.6101,26.055465 -0.8938,1.72832 -3.8747,5.52111 -6.6243,8.42842 l -4.9993,5.28602 1.0746,4.27199 c 2.0624,8.19901 1.1906,25.15549 -1.9677,38.272 -0.5297,2.2 -1.5308,6.55138 -2.2247,9.66973 -0.6939,3.11836 -2.5829,7.57207 -4.1977,9.89715 -7.693,11.07678 -7.1586,9.40859 -7.5069,23.43312 -0.5967,24.02684 -0.5465,24.7649 1.9576,28.81663 1.2692,2.05365 2.9152,5.86004 3.6578,8.45864 2.536,8.87487 4.591,14.72307 6.931,19.72473 1.2867,2.75 2.8907,7.7 3.5646,11 0.6739,3.3 1.8134,7.84806 2.5321,10.1068 0.7188,2.25874 1.5714,11.2092 1.8948,19.88991 0.3233,8.6807 0.8271,16.17014 1.1195,16.64319 0.2923,0.47306 1.6143,0.8601 2.9376,0.8601 1.3233,0 4.3634,0.66456 6.7558,1.47679 2.5106,0.85238 9.9528,1.69901 17.6015,2.00236 7.2884,0.28906 15.1342,0.93956 17.4351,1.44556 2.3009,0.50599 7.5585,1.43988 11.6835,2.07529 4.125,0.63541 9.52499,1.61299 11.99999,2.1724 2.475,0.55941 10.9034,1.00327 18.7298,0.98636 7.8264,-0.0169 15.7014,0.42424 17.5,0.98034 3.9458,1.21996 13.4308,3.54374 20.2702,4.9661 2.75,0.5719 6.5333,1.93381 8.4074,3.02647 3.8092,2.22089 9.2618,4.33814 16.3173,6.33607 2.59857,0.73584 6.42157,2.39413 8.49537,3.68508 5.1378,3.19819 10.3448,5.49005 14.3959,6.33633 1.8612,0.38881 5.409,1.87566 7.884,3.3041 7.0341,4.05973 25.3675,12.81407 28.77,13.73789 1.2485,0.33898 4.2303,2.11264 6.6262,3.94147 2.3959,1.82882 6.0994,4.20559 8.23,5.28169 2.1306,1.0762 5.8988,2.9822 8.3738,4.2356 11.4707,5.8093 13.7274,6.8042 17,7.4947 3.2776,0.6915 5.699,1.7597 17,7.499 2.475,1.2569 6.5595,3.3133 9.0768,4.5697 2.5172,1.2563 5.8922,3.348 7.5,4.648 1.6077,1.3 4.9062,3.6991 7.3298,5.3312 2.4236,1.6321 6.4736,4.4244 9,6.2051 2.5264,1.7806 6.3934,4.4405 8.5934,5.9108 2.2,1.4702 6.475,4.7633 9.5,7.318 6.2741,5.2985 12.4891,9.4193 15.7831,10.4648 1.2413,0.3939 4.2165,2.2121 6.6116,4.0403 2.3951,1.8282 5.313,3.8369 6.4841,4.4636 1.1711,0.6268 4.94,3.6609 8.3753,6.7425 3.4352,3.0816 8.3046,6.8799 10.8209,8.4407 2.5162,1.5608 6.4421,5.0522 8.7242,7.7586 2.2821,2.7064 8.6844,8.9038 14.2273,13.7719 5.543,4.8682 11.3328,10.8762 12.8663,13.3512 1.5335,2.475 5.0409,6.975 7.7942,10 2.7533,3.025 6.0876,7.1119 7.4095,9.0821 1.3219,1.9702 4.0366,6.0202 6.0325,9 1.996,2.9798 6.1417,8.2286 9.2127,11.6638 3.0709,3.4353 6.0964,7.2042 6.7232,8.3753 0.6267,1.1711 2.6687,4.1326 4.5376,6.581 1.8689,2.4484 3.6977,5.6456 4.0639,7.1049 0.7557,3.011 6.2806,13.6981 9.6119,18.5928 2.5248,3.7096 8.2278,11.915 12.9928,18.6935 1.7759,2.5264 4.5543,6.5764 6.1743,9 1.6199,2.4236 3.7763,5.3557 4.7918,6.5156 1.7364,1.9833 7.6933,12.9731 13.7628,25.391 1.8111,3.7054 3.0453,8.4956 3.7827,14.6809 0.602,5.0495 1.795,10.5355 2.6512,12.1912 0.8561,1.6557 2.0127,6.2258 2.5701,10.1559 0.5964,4.2055 2.0172,8.8585 3.453,11.3088 1.3418,2.2897 2.7496,6.1882 3.1284,8.6632 0.3789,2.475 1.0736,5.2514 1.5439,6.1697 0.4703,0.9184 1.3043,4.8369 1.8533,8.7079 0.5491,3.871 1.7099,8.9697 2.5798,11.3303 1.9381,5.2597 2.9042,9.2222 4.4598,18.2921 0.6603,3.85 1.9379,9.25 2.8392,12 1.4398,4.3934 1.6386,11.8541 1.6386,61.5 0,52.6072 -0.1291,56.8789 -1.8737,62 -1.1644,3.4179 -1.8259,7.9606 -1.7474,12 0.07,3.575 -0.324,8.525 -0.8744,11 -0.5504,2.475 -1.4188,9.1322 -1.9297,14.7937 -0.6545,7.2538 -1.5284,11.3099 -2.9592,13.735 -1.1167,1.8927 -2.512,5.2299 -3.1007,7.4159 -0.5886,2.1861 -2.5203,5.9054 -4.2926,8.2651 -4.81,6.4042 -8.349,12.0387 -9.1535,14.5734 -0.3939,1.2413 -2.1676,4.1604 -3.9414,6.4869 -5.7239,7.5072 -7.2062,10.5843 -6.0237,12.504 0.5848,0.9493 8.1889,8.11504 16.8979,15.92374 8.7091,7.8087 16.9965,15.9444 18.4166,18.0793 1.42,2.135 4.0293,6.048 5.7985,8.6957 1.7692,2.6477 9.9518,11.4639 18.1835,19.5917 8.2318,8.1278 15.6783,16.1536 16.5479,17.8353 0.8697,1.6817 4.0603,4.6434 7.0903,6.5817 3.3832,2.1642 6.6692,5.3562 8.5152,8.2714 4.2183,6.6619 14.1734,18.4583 22.5582,26.7307 3.9114,3.8591 8.3045,8.8165 9.7624,11.0165 1.4579,2.2 4.1076,6.067 5.8882,8.5934 5.9232,8.4037 8.3918,12.3177 14.7628,23.4066 3.476,6.05 8.0423,13.6388 10.1474,16.864 2.1051,3.2251 3.8274,6.4874 3.8274,7.2494 0,0.7621 1.197,3.7483 2.66,6.6361 1.463,2.8878 3.7067,7.3306 4.986,9.873 3.919,7.7882 6.0979,27.9399 6.258,57.8775 0.1066,19.9237 -4.3097,50.0209 -10.418,71 -1.3612,4.675 -3.3344,12.325 -4.3849,17 -2.668,11.8737 -13.5628,43.0065 -20.1219,57.5 -3.6879,8.1493 -8.9899,21.1776 -10.9781,26.9763 -2.2271,6.4953 -14.7333,29.8173 -18.3759,34.2679 -3.2085,3.9201 -6.2682,9.3287 -6.9688,12.3186 -0.3303,1.4096 -1.9647,4.3346 -3.632,6.5 -1.6674,2.1655 -5.121,7.0872 -7.6748,10.9372 -5.8092,8.7576 -14.6012,18.4019 -27.3488,30 -5.4406,4.95 -11.2714,10.9154 -12.9573,13.2564 -1.8237,2.5323 -5.1787,5.3676 -8.283,7 -2.8698,1.509 -7.7201,5.292 -10.7784,8.4068 -3.0583,3.1147 -8.0179,6.8436 -11.0214,8.2865 -3.0034,1.4429 -7.2607,3.938 -9.4607,5.5446 -10.8592,7.9304 -11.2384,8.0564 -33.5,11.1292 -12.391,1.7104 -39.9502,1.5167 -61.5,-0.4323 -30.5539,-2.7633 -38.2926,-4.7994 -54.8504,-14.432 -4.3178,-2.5119 -9.5847,-5.5103 -11.7043,-6.6631 -2.1197,-1.1529 -7.137,-4.1136 -11.1496,-6.5795 -4.0126,-2.4659 -8.8707,-5.2088 -10.7957,-6.0954 -1.925,-0.8866 -4.85,-2.7087 -6.5,-4.0491 -2.8714,-2.3326 -6.937,-5.1697 -15.8906,-11.0887 -2.2602,-1.4942 -7.0344,-4.1187 -10.6094,-5.8323 -3.575,-1.7136 -8.3,-3.9818 -10.5,-5.0404 -2.2,-1.0587 -9.85,-7.5439 -17,-14.4116 -7.6766,-7.3736 -14.8427,-13.3495 -17.5,-14.5935 -2.475,-1.1587 -6.0669,-3.299 -7.982,-4.7562 -1.9151,-1.4572 -5.1332,-3.7744 -7.1514,-5.1494 -2.0181,-1.375 -6.2619,-4.3 -9.4307,-6.5 -11.2162,-7.7873 -13.9531,-9.4624 -15.4901,-9.4811 -1.5126,-0.018 -5.1858,-2.2702 -15.4458,-9.4687 -2.75,-1.9294 -7.25,-5.0814 -10,-7.0045 -2.75,-1.923 -7.25,-5.0815 -10,-7.0188 -2.75,-1.9373 -7.025,-4.8432 -9.5,-6.4576 -3.84687,-2.5093 -12.48417,-11.6666 -18.76677,-19.8964 l -1.7765,-2.3271 -6.4783,3.4797 c -8.0682,4.3337 -12.8176,6.7004 -20.4784,10.2047 -3.3,1.5095 -7.685,3.5948 -9.7444,4.6339 -5.6098,2.8303 -14.5011,9.7472 -14.984,11.6564 -0.2336,0.9237 -0.052,5.7295 0.4044,10.6795 0.5107,5.5444 0.4105,13.6075 -0.261,21 -0.5996,6.6 -1.0893,20.55 -1.0882,31 0,18.2933 -1.9381,48.253 -3.2632,50.3971 -0.8935,1.4457 -2.7444,38.0912 -2.657,52.6029 0.04,6.6 -0.3816,14.025 -0.9365,16.5 -0.5548,2.475 -2.07,17.1393 -3.3672,32.5873 -1.2971,15.448 -2.8017,28.948 -3.3435,30 -0.5419,1.052 -1.2896,3.903 -1.6617,6.3355 -0.3722,2.4325 -1.74579,6.4825 -3.05259,9 -2.9676,5.7167 -5.1574,11.3417 -6.5353,16.7869 -0.5858,2.3153 -2.5152,6.1403 -4.2875,8.5 -1.7723,2.3597 -4.4636,6.199 -5.9808,8.5318 -1.5172,2.3328 -4.6672,5.4828 -7,7 -2.3328,1.5172 -6.145,4.1878 -8.4715,5.9348 -2.3265,1.7469 -5.2515,3.4536 -6.5,3.7926 -2.3376,0.6347 -9.6482,3.9764 -18.0631,8.2568 -7.269,3.6976 -26.0044,5.33 -32.9027,2.8669 z m 18.9453,-50.9846 c 2.6128,-1.3156 6.9334,-3.4531 9.6013,-4.75 5.8154,-2.8269 8.3022,-5.724 9.647,-11.2385 0.5525,-2.2657 2.0825,-6.3695 3.4,-9.1195 4.3692,-9.1198 4.6389,-10.5428 6.6054,-34.8515 1.0745,-13.2817 2.478,-27.0407 3.119,-30.5757 0.6409,-3.5349 1.0939,-13.6599 1.0066,-22.5 -0.1632,-16.5334 1.2925,-40.9966 2.8606,-48.0728 2.584,-11.6607 4.4134,-57.8402 4.1398,-104.5 -0.1266,-21.5995 -4.0136,-76.8855 -6.0792,-86.4673 -1.5095,-7.0021 -2.9305,-16.7716 -3.5683,-24.5327 -0.339,-4.125 -1.0011,-9.3 -1.4714,-11.5 -0.4702,-2.2 -1.3783,-7.375 -2.0179,-11.5 -0.6395,-4.125 -1.5361,-9.525 -1.9924,-12 -2.7213,-14.761 -3.0702,-18.997 -2.3062,-28 0.4434,-5.225 0.5812,-11.4816 0.3062,-13.9035 -0.4918,-4.3317 -0.5897,-4.4332 -6,-6.2246 -3.025,-1.0016 -9.8328,-2.2427 -15.1284,-2.7579 -5.2957,-0.5153 -10.9392,-1.6147 -12.5411,-2.4431 -1.602,-0.8284 -5.8192,-2.0375 -9.3716,-2.6869 -12.3303,-2.2541 -20.2606,-4.6059 -28.7184,-8.5169 -2.8927,-1.3376 -7.6177,-3.4967 -10.5,-4.798 -2.8823,-1.3012 -7.2655,-3.3261 -9.7405,-4.4997 -2.475,-1.1735 -8.7346,-3.5198 -13.9102,-5.2139 -5.1756,-1.6941 -11.0256,-3.8903 -13,-4.8804 -1.9744,-0.9902 -6.1816,-2.9792 -9.3493,-4.4202 -3.1677,-1.4409 -8.1177,-3.7083 -11,-5.0388 -10.79441,-4.9824 -19.55151,-7.7607 -30.24051,-9.5939 -9.0706,-1.5558 -13.0323,-2.5217 -18.2943,-4.4606 -2.3619,-0.8702 -7.1994,-2.0276 -10.75,-2.5719 -3.5507,-0.5444 -9.35355,-1.434 -12.89534,-1.9771 -3.54178,-0.543 -7.92928,-1.6355 -9.75,-2.4278 -4.20819,-1.831 -12.16009,-4.1597 -17.27583,-5.0591 -2.181,-0.3834 -5.23172,-1.352 -6.77937,-2.1523 -1.54766,-0.8003 -3.26178,-1.1783 -3.80915,-0.84 -1.55701,0.9622 0.0702,11.2583 4.736,29.9666 0.82301,3.3 2.10351,8.475 2.84556,11.5 3.48036,14.1879 8.96516,30.2589 12.96883,38 1.28007,2.475 2.64218,6.3 3.02693,8.5 1.02481,5.8599 3.58729,13.542 5.73946,17.2063 1.25485,2.1365 2.2012,6.6408 2.83636,13.5 1.31818,14.2355 3.2135,22.7581 6.20692,27.9105 1.40061,2.4108 3.015,6.6332 3.58754,9.3832 0.57254,2.75 1.72447,7.7 2.55985,11 0.83537,3.3 2.17234,8.7 2.97104,12 1.8195,7.5172 3.9988,14.8217 5.9672,20 0.8363,2.2 1.5402,5.0421 1.5644,6.3157 0.024,1.2737 0.4904,3.1501 1.0361,4.1698 0.5457,1.0197 1.4414,5.0211 1.9904,8.8921 0.549,3.871 1.7223,8.9697 2.6073,11.3303 2.1197,5.6539 5.4082,18.8766 7.3685,29.6273 1.2032,6.5987 2.6201,10.5064 6.6302,18.2861 1.3102,2.5418 2.8497,7.7168 3.4211,11.5 1.0314,6.8286 1.5616,9.3411 4.4063,20.8787 2.9969,12.1551 3.429,14.1405 4.5703,21 1.3289,7.9872 2.2376,10.9711 5.4812,18 1.269,2.75 3.5477,7.7 5.0637,11 1.516,3.3 3.81671,8.0913 5.11261,10.6474 1.2959,2.556 2.3562,5.2111 2.3562,5.9001 0,0.689 1.1839,3.7726 2.6309,6.8526 1.4469,3.0799 3.7616,8.0749 5.1438,11.0999 1.3821,3.025 3.523,7.525 4.7576,10 1.2346,2.475 2.577,6.075 2.9831,8 0.8695,4.1211 5.663,13.9273 12.7092,26 1.4445,2.475 2.919,6.3 3.2766,8.5 0.8256,5.0795 2.0165,8.6183 5.2163,15.5 4.6052,9.9043 6.4376,13.1859 9.8839,17.7008 1.8695,2.4492 3.6818,5.6559 4.0273,7.1261 1.5873,6.754 10.9833,18.5111 19.1518,23.9644 3.0554,2.0398 7.1672,4.7844 9.1374,6.0991 1.9702,1.3147 5.6403,4.2961 8.1559,6.6252 2.5156,2.3292 6.7906,5.2939 9.5,6.5882 13.8926,6.6364 17.047,7.0936 24.1757,3.5042 z M 1321.7453,1528.613 c 1.9546,-1.4954 5.1605,-3.3903 7.1241,-4.2108 1.9636,-0.8204 5.4509,-3.738 7.7496,-6.4835 2.5045,-2.9914 6.2726,-6.0159 9.403,-7.5475 3.5133,-1.7189 5.8266,-3.6754 7.0654,-5.9757 1.013,-1.881 6.5677,-7.5873 12.3436,-12.6805 9.7667,-8.6122 20.2605,-19.9079 20.2605,-21.8087 0,-0.452 2.475,-3.5957 5.5,-6.9858 3.025,-3.3902 5.5,-6.9589 5.5,-7.9304 0,-1.6217 1.3726,-3.9301 9.2634,-15.5786 3.4229,-5.053 6.3062,-11.3105 7.2458,-15.7251 0.3926,-1.8449 1.7422,-5.3793 2.9991,-7.8543 1.2568,-2.475 3.0047,-6.075 3.8842,-8 0.8795,-1.925 3.2146,-6.425 5.1891,-10 1.9746,-3.575 3.9759,-7.625 4.4475,-9 0.4716,-1.375 1.5622,-4.4314 2.4237,-6.7921 0.8615,-2.3606 2.0236,-7.5157 2.5824,-11.4558 0.6473,-4.5642 1.9983,-8.8126 3.7231,-11.7079 5.003,-8.3978 6.4052,-12.5002 7.2361,-21.1709 0.4547,-4.7447 1.5822,-10.0877 2.5056,-11.8733 0.9234,-1.7856 2.0508,-7.1286 2.5053,-11.8733 0.4546,-4.7447 1.073,-9.3017 1.3743,-10.1267 0.3013,-0.825 1.0198,-6.225 1.5967,-12 1.3907,-13.9224 2.7931,-22.7007 3.9815,-24.9212 0.5342,-0.9981 1.2211,-8.2315 1.5266,-16.0744 0.3055,-7.8429 0.7187,-14.5398 0.9182,-14.8821 0.9176,-1.5743 -1.5207,-13.1271 -3.7195,-17.6223 -1.3451,-2.75 -3.2865,-6.7663 -4.3143,-8.9251 -1.0279,-2.1589 -3.1539,-5.5339 -4.7246,-7.5 -1.5707,-1.9662 -3.8819,-5.5999 -5.136,-8.0749 -4.4999,-8.8808 -8.3203,-15.7376 -10.9125,-19.5857 -1.4503,-2.1528 -3.9367,-5.8525 -5.5254,-8.2214 -1.5887,-2.3689 -6.7602,-8.1355 -11.4923,-12.8147 -8.7241,-8.6265 -13.8949,-14.8114 -19.9908,-23.9118 -1.9939,-2.9765 -5.4562,-6.3293 -8.4726,-8.2044 -3.0646,-1.9051 -6.29,-5.0459 -8.0797,-7.868 -1.6384,-2.5834 -9.404,-11.0117 -17.2569,-18.7295 -7.8529,-7.7178 -15.403,-15.6764 -16.778,-17.6858 -1.375,-2.0093 -4.1346,-6.0972 -6.1324,-9.0841 -2.0794,-3.1089 -9.7751,-10.8833 -18,-18.1838 -7.9022,-7.0142 -15.1615,-13.8492 -16.1318,-15.1889 -0.9703,-1.3397 -9.9703,-9.7587 -20,-18.7089 -10.0297,-8.9503 -22.0076,-19.97014 -26.6176,-24.48844 -8.4375,-8.2698 -15.3346,-12.5242 -22.4762,-13.8639 -1.9714,-0.3699 -5.5579,-1.924 -7.97,-3.4537 -2.4121,-1.5298 -5.359,-3.0903 -6.5488,-3.4679 -1.1898,-0.3776 -4.0667,-2.1303 -6.3932,-3.8948 -5.8947,-4.4708 -10.7633,-7.2777 -13.9031,-8.0156 -1.4702,-0.3455 -4.6202,-2.1052 -7,-3.9104 -10.5092,-7.9718 -22.0096,-13.7761 -34.0516,-17.186 -2.5986,-0.7359 -6.4216,-2.3942 -8.4954,-3.6851 -2.0739,-1.291 -5.3669,-3.0709 -7.3177,-3.9554 -1.9509,-0.8845 -6.5475,-4.2595 -10.2146,-7.5 -3.6672,-3.2405 -9.0481,-7.0704 -11.9576,-8.5109 -10.6664,-5.2811 -16.5194,-7.8809 -17.7425,-7.8809 -0.689,0 -3.3441,-1.0603 -5.9001,-2.3562 -2.5561,-1.2959 -7.1224,-3.4931 -10.1474,-4.8827 -3.025,-1.3895 -7.075,-3.2523 -9,-4.1395 -1.925,-0.8872 -6.2,-3.1078 -9.5,-4.9345 -14.1002,-7.8054 -19.195,-10.3937 -21.6929,-11.0207 -1.4593,-0.3662 -4.6004,-2.1329 -6.9802,-3.9259 -8.739,-6.5844 -13.3353,-8.6864 -22.3269,-10.2112 -2.2,-0.373 -5.8801,-1.7698 -8.1781,-3.1038 -2.2979,-1.334 -4.7973,-2.4255 -5.5542,-2.4255 -1.3748,0 -5.10547,-2.3008 -16.10967,-9.9351 -6.0098,-4.1694 -10.9035,-6.8373 -20.9175,-11.4036 -14.8113,-6.7538 -17.5034,-8.0089 -21.2405,-9.903 -2.2,-1.115 -6.1298,-3.0891 -8.7329,-4.3869 -2.6031,-1.2978 -7.2204,-4.6123 -10.2606,-7.3655 -3.0402,-2.7533 -6.3348,-5.0059 -7.3213,-5.0059 -0.9865,0 -3.8201,-1.2375 -6.29689,-2.75 -5.8718,-3.5858 -22.7596,-11.6803 -30.3883,-14.5656 -11.9128,-4.5055 -26.9035,-8.8236 -40.9777,-11.8038 -2.7377,-0.5797 -5.867,-1.5299 -6.9539,-2.1116 -4.5785,-2.4503 -28.2699,-8.158 -44.5684,-10.7374 -4.125,-0.6528 -9.525,-1.6438 -12,-2.2022 -2.475,-0.5584 -8.2477,-0.9907 -12.8283,-0.9608 -4.5806,0.03 -10.2056,-0.5565 -12.5,-1.3033 -2.2944,-0.7469 -7.3217,-1.8947 -11.1717,-2.5508 -6.8099,-1.1605 -9.0216,-1.6435 -20.5,-4.4768 -14.54421,-3.59 -29.34261,-6.2781 -41.50001,-7.5385 -14.6037,-1.514 -26.54361,-2.9989 -33.75003,-4.1974 -5.23958,-0.8714 -8.29752,-0.8306 -13.66577,0.1823 -3.85636,0.7277 -8.61197,1.0001 -10.75,0.6159 -12.17865,-2.1883 -18.37711,-2.7088 -32.33423,-2.7149 -8.525,0 -17.2902,-0.4744 -19.47823,-1.0459 -2.18803,-0.5716 -12.53803,-1.0279 -23,-1.014 -18.34692,0.024 -30.36414,-0.769 -43.02177,-2.8402 -3.3,-0.54 -10.5,-1.0082 -16,-1.0406 -5.5,-0.032 -11.575,-0.4643 -13.5,-0.9599 -4.95502,-1.2758 -29.32831,-2.1629 -58.23806,-2.1197 -24.39749,0.036 -24.79673,0.071 -29,2.488 -2.34407,1.3481 -5.83514,2.7803 -7.75793,3.1826 -3.57996,0.7491 -6.73105,1.9674 -15.50401,5.9943 -9.73584,4.4689 -17.05536,8.1121 -21.5,10.7014 -2.475,1.4419 -6.75,3.0685 -9.5,3.6147 -8.61476,1.7112 -20.55586,5.6243 -28.5,9.3395 -2.475,1.1574 -6.04132,2.8267 -7.92515,3.7096 -1.88383,0.8828 -5.03383,2.9029 -7,4.4892 -1.96617,1.5862 -5.48367,3.7431 -7.81667,4.7932 -2.333,1.05 -5.45742,3.4325 -6.94316,5.2945 -1.48574,1.862 -10.1219,9.8301 -19.19148,17.7069 -21.16267,18.3793 -27.83896,24.9659 -32.69079,32.2516 -2.16301,3.248 -4.99291,7.4699 -6.28866,9.3819 -1.29576,1.9121 -3.5809,5.774 -5.07811,8.5821 -1.4972,2.8082 -4.1984,7.8057 -6.00267,11.1057 -1.80427,3.3 -3.95556,7.2695 -4.78065,8.8212 -0.82509,1.5516 -2.08446,5.3766 -2.79859,8.5 -0.71413,3.1233 -2.03841,8.8288 -2.94284,12.6788 -1.8893,8.0424 -2.29241,30.2279 -0.60647,33.3781 0.58588,1.0947 1.07058,4.1575 1.07711,6.8062 0.0164,6.6479 3.85664,19.806 8.01197,27.4519 1.08689,1.9998 1.97616,4.2049 1.97616,4.9 0,0.6952 1.18388,3.7839 2.63085,6.8639 1.44697,3.0799 3.70486,7.9581 5.01753,10.8404 1.31268,2.8823 3.46438,7.6073 4.78156,10.5 4.47431,9.82624 8.51079,17.92754 10.76164,21.59864 5.50986,8.9867 16.3757,21.8858 20.02614,23.7735 1.50666,0.7791 5.56153,3.9394 9.01083,7.023 6.40811,5.7285 13.91501,10.879 19.27145,13.2221 1.65,0.7217 4.8,2.6269 7,4.2337 2.2,1.6068 6.08178,4.4481 8.62617,6.3139 4.70572,3.4508 8.05923,5.3058 17.87383,9.8873 6.72429,3.1388 7.93015,3.5533 15.5,5.3282 11.75463,2.7561 17.06095,4.2029 21.5,5.8622 2.475,0.9251 8.55,2.1132 13.5,2.6403 10.64908,1.1339 21.44128,2.6933 27,3.9012 6.03297,1.3111 39.89719,4.1418 49,4.096 4.4,-0.022 9.575,0.368 11.5,0.867 4.26298,1.1051 25.25134,3.0518 33.5,3.1072 15.6521,0.1051 35.85749,2.1468 50.5,5.1029 3.025,0.6107 10.70816,1.0497 17.0737,0.9756 6.36553,-0.074 13.11553,0.3404 15,0.9211 1.88446,0.5808 6.1263,1.7033 9.4263,2.4946 3.3,0.7913 8.7,2.1218 12,2.9566 10.72315,2.7127 13.89476,3.3899 20.69093,4.4182 3.68002,0.5568 8.18002,1.6593 10,2.4501 6.17384,2.6825 13.27979,4.7926 23.80907,7.0702 5.775,1.2492 12.3,3.2127 14.5,4.3632 2.2,1.1505 6.92503,2.5397 10.50003,3.0869 3.575,0.5473 9.5634,1.4629 13.3076,2.0346 3.7441,0.5717 8.0376,1.6756 9.541,2.453 1.5035,0.7775 5.6401,1.9449 9.1925,2.5943 16.76451,3.0646 31.37901,7.1982 40.71841,11.5169 2.8927,1.3376 7.7345,3.557 10.7595,4.932 3.025,1.375 7.8582,3.5801 10.7405,4.9002 9.0185,4.1306 12.1383,5.3441 15.7445,6.1242 1.9228,0.416 5.5174,1.8261 7.988,3.1335 2.4707,1.3075 5.1043,2.3772 5.8527,2.3772 0.7483,0 3.4519,1.0603 6.0079,2.3562 17.0853,8.6621 23.795,11.1293 34.4562,12.6696 3.7448,0.541 8.1878,1.6968 9.8733,2.5684 1.6855,0.8716 7.0747,1.9609 11.976,2.4206 7.0444,0.6608 9.8995,1.4278 13.6267,3.6606 6.0499,3.6241 10.001,5.1533 13.5608,5.2485 1.5651,0.042 4.0876,0.9604 5.6055,2.0413 1.5179,1.0808 4.9624,2.5303 7.6544,3.221 2.692,0.6907 6.7572,2.7447 9.0338,4.5646 3.9233,3.136 7.7023,5.34 18.60139,10.8488 2.721,1.3753 9.1115,6.7918 15,12.7138 5.6426,5.6748 12.7919,12.1744 15.8872,14.4436 7.6012,5.5723 21.4456,19.6002 25.4063,25.743 1.7731,2.75 5.7365,7.8107 8.8075,11.2459 3.0709,3.4353 6.1234,7.2603 6.7832,8.5 0.6599,1.2398 2.4484,3.8291 3.9746,5.7541 1.5261,1.925 3.0991,4.85 3.4956,6.5 0.9196,3.8276 5.36607,12.6256 10.99597,21.7571 2.4249,3.933 4.4089,7.9139 4.4089,8.8464 0,0.9325 1.5794,4.0425 3.5098,6.9111 1.9304,2.8686 3.7837,6.4013 4.1183,7.8505 0.3347,1.4492 1.6165,4.4349 2.8485,6.6349 1.2321,2.2 2.5287,5.2029 2.8815,6.6731 0.3528,1.4702 2.104,4.6202 3.8916,7 1.7877,2.3798 4.4916,6.2356 6.0088,8.5684 1.5172,2.3328 4.6672,5.4828 7,7 2.3328,1.5172 6.145,4.1878 8.4715,5.9348 2.3265,1.7469 5.2515,3.5004 6.5,3.8965 1.2485,0.3962 6.545,4.5359 11.77,9.1992 5.225,4.6634 11.75,9.9864 14.5,11.8288 2.75,1.8425 7.25,4.9304 10,6.8621 2.75,1.9318 6.8,4.6971 9,6.1453 2.2,1.4482 5.125,3.6301 6.5,4.8488 1.375,1.2187 4.525,3.3845 7,4.813 2.475,1.4285 10.125,8.0309 17,14.6721 8.6361,8.3424 13.5819,12.3746 16,13.0446 1.925,0.5334 5.1636,2.1046 7.1969,3.4916 2.0334,1.3869 4.0828,2.5217 4.5543,2.5217 0.8715,0 5.7392,3.1216 14.7488,9.4584 9.051,6.366 12.7622,8.7388 18.1816,11.6246 2.9441,1.5678 7.9326,4.2668 11.0856,5.9978 10.1288,5.5607 14.6534,7.6483 18.2328,8.4127 1.925,0.411 4.625,1.3156 6,2.0102 1.375,0.6945 4.975,1.8015 8,2.46 8.8466,1.9257 45.1021,4.5363 63,4.5363 16.4165,0 16.518,-0.014 20.0538,-2.7191 z m -114.1919,-74.2942 c -3.3607,-1.8259 -8.631,-9.7391 -9.472,-14.2219 -1.1237,-5.9901 0.2897,-12.3334 6.4122,-28.7773 9.319,-25.0288 27.205,-83.8138 25.8987,-85.12 -0.3334,-0.3334 -26.3899,-4.3523 -57.9035,-8.9309 -31.5135,-4.5787 -60.7824,-8.8543 -65.0419,-9.5015 -13.7542,-2.0897 -21.7343,-9.495 -22.5619,-20.9371 -0.3386,-4.6813 0.067,-6.8874 2.0719,-11.2665 4.963,-10.8407 13.9535,-14.1079 25.7906,-9.3723 11.3499,4.5407 39.45,9.2538 80.944,13.5764 16.3905,1.7075 52.769,5.0395 55.2297,5.0587 1.9708,0.015 12.1709,-25.2077 16.1735,-39.9943 1.4143,-5.225 4.3705,-17.8212 6.5692,-27.9915 4.0434,-18.7031 5.2051,-21.5587 10.326,-25.3819 3.3289,-2.4854 13.3991,-3.4088 17.7085,-1.6237 4.0132,1.6623 8.7153,7.1787 11.892,13.9515 2.3597,5.031 2.5971,6.6591 2.5581,17.5456 -0.062,17.2409 -2.9468,27.7391 -14.1257,51.4014 -3.4822,7.3708 -6.3313,14.0764 -6.3313,14.9012 0,1.3054 2.8194,1.4224 21.75,0.9026 11.9625,-0.3285 28.95,-1.3397 37.75,-2.2473 21.117,-2.1777 33.5482,-1.7098 39.1875,1.4751 9.4936,5.3618 13.8744,17.1809 9.5044,25.6425 -2.6045,5.043 -9.4783,11.6081 -15.0977,14.4197 -5.29,2.6468 -8.3268,2.7569 -34.0942,1.2354 -10.725,-0.6332 -31.7815,-1.2297 -46.7923,-1.3255 l -27.2923,-0.1742 -2.5527,2.3845 c -3.6913,3.4482 -4.6082,5.6283 -9.8351,23.3846 -5.7819,19.6414 -5.5775,18.8675 -10.9639,41.5 -7.3959,31.0763 -13.294,44.9089 -22.8195,53.5178 -7.4854,6.7651 -18.537,9.4162 -24.8823,5.9689 z M 1018.6915,1211.786 c -10.5851,-1.2889 -30.93977,-5.7124 -39.17597,-8.5138 -16.0307,-5.4524 -30.408,-14.8675 -34.3531,-22.4964 -4.1412,-8.0081 0.069,-21.7025 8.3525,-27.1653 4.8661,-3.2092 8.5861,-2.3396 17.521,4.0958 17.2934,12.4558 31.00017,17.4476 52.34467,19.0633 24.1809,1.8303 43.9313,-2.185 66.3109,-13.4813 14.7752,-7.4578 26.8424,-16.9216 20,-15.6851 -0.825,0.1491 -9.15,0.3053 -18.5,0.3472 -32.6369,0.1462 -44.1586,-5.4398 -51.5945,-25.0146 -4.344,-11.4354 -3.4697,-31.6399 1.8855,-43.5728 6.3081,-14.0563 23.2729,-32.864 51.209,-56.7718 9.625,-8.2372 20.1413,-17.8689 23.3695,-21.404 3.2282,-3.53504 7.1433,-7.08604 8.7003,-7.89124 6.9689,-3.6037 14.2716,-0.6954 20.0878,8.00004 3.747,5.602 4.0084,6.4412 3.6345,11.6696 -0.8201,11.4681 -7.2799,20.5308 -18.7921,26.3643 -7.2398,3.6686 -42.2452,32.6158 -50.9439,42.1273 -9.5153,10.4045 -13.3259,22.085 -9.5726,29.3429 1.9698,3.8093 9.8251,7.5043 20.4269,9.6087 11.4629,2.2753 32.4351,1.531 43.0896,-1.5293 15.9317,-4.5761 34.8285,-15.1735 56.9078,-31.9143 11.3441,-8.6013 13.9478,-9.0653 20.0309,-3.5695 8.2752,7.4761 10.7781,19.1927 6.1447,28.7641 -4.6566,9.6192 -22.9487,23.8515 -71.8738,55.9218 -46.4267,30.4326 -60.6271,37.9089 -80.2096,42.2295 -8.9153,1.9671 -34.163,2.7946 -45,1.4749 z m -244.11866,-91.7473 c -8.0798,-4.2209 -11.0924,-9.1393 -11.6659,-19.0459 -0.3319,-5.7344 8e-4,-9.2954 1.208,-12.9301 1.7694,-5.3272 16.7648,-30.9669 54.2335,-92.73064 33.3251,-54.9335 39.921,-66.3329 42.7875,-73.9485 4.614,-12.2583 13.773,-28.6561 19.4133,-34.7566 4.7252,-5.1107 5.8081,-5.7949 9.1723,-5.7949 2.7672,0 4.9785,0.8923 8.0542,3.25 11.0817,8.4949 11.8311,23.2173 2.3836,46.8306 -1.9073,4.767 -3.4678,9.4051 -3.4678,10.3068 0,1.5126 0.2901,1.5155 3.75,0.037 23.31549,-9.9604 30.90559,-11.8124 46.03989,-11.2339 12.7585,0.4876 18.875,2.9083 27.6779,10.9537 16.6493,15.2165 24.3172,33.3996 23.2594,55.1556 -0.2728,5.60994 -1.0101,11.85464 -1.6385,13.87714 -2.9962,9.6431 -12.9296,18.9028 -20.5087,19.1176 -4.348,0.1232 -7.7632,-2.2435 -12.8195,-8.8839 -4.9972,-6.5629 -6.6999,-11.9088 -7.7156,-24.22494 -0.9711,-11.7763 -1.6064,-12.8915 -9.451,-16.5906 -16.7579,-7.9022 -41.90759,-1.1532 -73.90739,19.8332 l -8.8135,5.78014 -26.8644,40.2783 c -23.8368,35.7389 -27.4401,41.672 -31.9729,52.6456 -6.7344,16.3033 -10.7881,22.4269 -15.76,23.8076 -5.6523,1.5697 -7.5384,1.3256 -13.3944,-1.7337 z M 644.1915,1061.9665 c -10.46393,-4.9949 -14.17753,-10.04 -12.94742,-17.5895 0.36248,-2.2247 2.68517,-9.4449 5.16153,-16.0449 5.98683,-15.9561 10.28589,-28.57324 10.28589,-30.18764 0,-2.2455 -2.33174,-1.5069 -15.11335,4.78724 -26.88179,13.2374 -43.63447,18.8932 -55.97693,18.8979 -5.33375,0 -7.74185,-0.5729 -12.63014,-3.0157 -10.95618,-5.4748 -17.42126,-14.3365 -23.33336,-31.98294 -6.86663,-20.4955 -4.76573,-37.0108 8.12603,-63.8793 27.47982,-57.2723 68.66652,-98.3523 118.42528,-118.1186 10.715,-4.2565 20.0041,-5.5169 29.4427,-3.9952 10.2444,1.6517 22.34861,5.8995 32.35771,11.3554 5.0916,2.7754 11.0512,5.1019 15.383,6.0051 26.9671,5.6228 32.7489,26.1558 15.4687,54.9347 -2.7077,4.5095 -19.8718,37.224 -38.1425,72.699 -26.02151,50.5244 -34.41191,67.75014 -38.72311,79.50004 -8.6596,23.6008 -15.032,34.2544 -22.6521,37.8704 -4.87551,2.3136 -8.27803,2.0356 -15.13193,-1.236 z m -45.56389,-83.74474 c 26.16905,-6.4197 74.66202,-40.8798 94.64902,-67.2594 11.0171,-14.5408 24.41491,-44.6977 24.41491,-54.9552 0,-3.0842 -0.5742,-4.4816 -2.4468,-5.9546 -5.80101,-4.563 -24.15171,-5.3741 -38.05321,-1.6818 -8.9569,2.379 -26.8193,11.3472 -36.99374,18.5736 -10.82191,7.6862 -31.9905,28.4478 -39.85107,39.085 -19.95984,27.0102 -31.51456,56.2383 -26.54476,67.1458 2.6562,5.8297 13.03405,7.9394 24.82565,5.0466 z m -245.58823,68.19054 c -16.20219,-3.9301 -30.69372,-17.166 -37.71612,-34.4482 -4.0484,-9.9632 -8.63176,-31.65004 -8.63176,-40.84234 0,-0.6946 -1.4625,-1.8818 -3.25,-2.6383 -6.4716,-2.7388 -8.74167,-8.1059 -8.73465,-20.6514 0.005,-8.865 2.65261,-15.6013 8.38508,-21.3338 3.33093,-3.3309 3.88291,-4.7573 6.71164,-17.3443 3.52737,-15.6957 10.70092,-37.1626 17.73869,-53.0831 17.62843,-39.8783 44.19086,-65.4902 73.93313,-71.2875 10.21606,-1.9913 22.7652,-0.8188 30.63071,2.8619 18.02021,8.4327 28.72129,30.852 27.2875,57.1688 -1.20526,22.1222 -10.98934,41.3284 -30.86843,60.5949 -15.82565,15.3379 -32.2655,26.21 -60.44335,39.9727 -18.76953,9.1674 -19.11981,9.396 -19.67916,12.8429 -0.89258,5.5003 1.00302,21.7689 3.22935,27.7153 6.0155,16.06684 21.32966,22.25374 42.08947,17.00394 21.90808,-5.54004 38.81471,-18.36104 61.46555,-46.61174 13.45334,-16.7793 20.76021,-23.8971 26.20726,-25.5291 5.32017,-1.594 7.84952,-0.1959 10.60979,5.8646 2.67496,5.8732 2.82474,18.9149 0.31321,27.2727 -5.01256,16.6807 -28.68576,44.81184 -49.47283,58.78894 -16.5686,11.1408 -36.84323,19.8924 -54.56295,23.5526 -8.95225,1.8491 -27.86812,1.9192 -35.24213,0.1305 z m 15.11841,-146.73774 c 15.30665,-7.7183 23.21539,-13.2721 33.06627,-23.2205 9.45786,-9.5515 13.42494,-16.0079 15.48555,-25.2028 1.99691,-8.9106 -1.16693,-17.33 -7.50789,-19.9794 -4.63273,-1.9357 -7.42981,-1.816 -13.8698,0.5935 -15.81122,5.9158 -31.93511,30.5283 -40.58185,61.9466 -1.13222,4.1139 -2.05857,8.5502 -2.05857,9.8584 0,2.0916 0.33176,2.2972 2.75,1.7041 1.5125,-0.3709 7.23483,-2.9359 12.71629,-5.6999 z m 276.16717,590.79154 c 0.83113,-0.8345 -2.09399,-13.3061 -4.01866,-17.134 -3.96497,-7.8859 -5.86717,-14.3181 -9.01971,-30.5 -1.55059,-7.9591 -3.49785,-14.9522 -5.98682,-21.5 -0.83627,-2.2 -1.54024,-5.1252 -1.56438,-6.5004 -0.0834,-4.7515 -4.78622,-23.7811 -6.81292,-27.568 -0.58168,-1.0869 -1.53191,-4.2162 -2.1116,-6.9539 -2.50926,-11.8505 -3.96454,-17.2877 -5.88233,-21.9777 -3.7878,-9.2631 -5.44787,-14.7441 -9.08633,-30 -1.87435,-7.8591 -3.15071,-16.1913 -3.15071,-20.5682 0,-2.7844 -0.9038,-6.1455 -2.41676,-8.9876 -1.32922,-2.4969 -2.72593,-6.3183 -3.10381,-8.492 -0.95399,-5.4877 -3.18257,-12.0695 -5.0536,-14.9251 -0.86561,-1.321 -2.19181,-4.5676 -2.94711,-7.2145 -1.91255,-6.7025 -4.39091,-14.1749 -6.07373,-18.3126 -0.78289,-1.925 -1.85904,-5.525 -2.39143,-8 -2.80404,-13.0355 -3.69073,-15.9858 -5.35817,-17.8283 -1.25935,-1.3916 -2.24356,-5.2111 -3.18059,-12.3434 -2.43704,-18.5498 -5.60309,-35.2437 -7.50984,-39.5977 -1.85923,-4.2456 -1.89288,-4.2658 -6.01083,-3.6073 -4.54904,0.7274 -13.14892,-0.5218 -28.45413,-4.1332 -9.68449,-2.2851 -28.22634,-4.4342 -39.5,-4.5783 -10.10571,-0.1291 -34.44511,-2.0111 -39.0517,-3.0196 -2.50344,-0.5481 -7.00344,-1.0024 -10,-1.0095 -14.72639,-0.035 -48.9691,-3.3329 -61.9483,-5.966 -2.475,-0.5022 -9,-1.3705 -14.5,-1.9296 -14.14447,-1.438 -22.26492,-2.7909 -24.75719,-4.1247 -3.05918,-1.6373 -16.31516,-5.2557 -29.24281,-7.9824 -2.75,-0.58 -7.025,-2.0683 -9.5,-3.3073 -2.475,-1.239 -6.86273,-3.4497 -9.75052,-4.9127 -2.88779,-1.463 -5.83719,-2.66 -6.55422,-2.66 -1.27867,0 -5.22028,-2.4512 -15.19526,-9.4498 -11.94515,-8.3808 -15.76896,-10.587 -20.2449,-11.6806 -2.61531,-0.6389 -5.96921,-1.7704 -7.45311,-2.5144 -3.8437,-1.9272 -25.12312,-21.0882 -28.7137,-25.8552 -1.65708,-2.2 -5.0492,-6.475 -7.53805,-9.5 -2.48885,-3.025 -5.75369,-7.3 -7.2552,-9.5 -1.50151,-2.2 -3.79369,-5.3155 -5.09373,-6.9232 -1.30005,-1.6078 -3.39167,-4.9828 -4.64805,-7.5 -1.25639,-2.5173 -3.19661,-6.3768 -4.3116,-8.5768 -1.89404,-3.7371 -3.14914,-6.4292 -9.903,-21.2405 -1.44445,-3.1677 -3.68656,-7.8508 -4.98247,-10.4069 -1.2959,-2.55604 -2.35619,-5.25964 -2.35619,-6.00794 0,-0.7484 -1.125,-3.4739 -2.5,-6.0569 -1.375,-2.5829 -2.5,-5.2343 -2.5,-5.8921 0,-0.6577 -1.09435,-3.4908 -2.43188,-6.2958 -2.81196,-5.897 -5.1807,-12.7887 -7.08035,-20.5999 -0.73567,-3.025 -1.84234,-7.075 -2.45927,-9 -1.63651,-5.1064 -2.36855,-43.0593 -0.98369,-51 1.11572,-6.3974 1.59754,-8.5729 4.54022,-20.5 0.81419,-3.3 1.94879,-8.25 2.52133,-11 0.57254,-2.75 2.22324,-7.025 3.66823,-9.5 1.44498,-2.475 3.58035,-6.3 4.74527,-8.5 1.16493,-2.2 3.60096,-6.7 5.41342,-10 1.81246,-3.3 4.19457,-7.8 5.29357,-10 1.09901,-2.2 3.18506,-5.5669 4.63567,-7.482 1.45062,-1.9151 3.76248,-5.1332 5.13748,-7.1514 1.375,-2.0181 4.13928,-6.0762 6.14284,-9.018 4.60954,-6.768 13.00627,-15.0876 28.85716,-28.5921 6.875,-5.8574 16.90909,-15.0961 22.29798,-20.5306 5.67982,-5.7278 11.56412,-10.6832 14,-11.79 2.31111,-1.05 6.03774,-3.1526 8.2814,-4.6725 11.50784,-7.7955 13.93888,-9.2659 15.3664,-9.2946 0.85482,-0.017 3.35422,-1.1399 5.55422,-2.4949 2.2,-1.355 4.63004,-2.466 5.40009,-2.4688 0.77004,0 3.69504,-1.0994 6.5,-2.437 6.11663,-2.9167 13.08726,-5.2806 20.77873,-7.0467 3.12334,-0.7171 6.94834,-1.9697 8.5,-2.7836 5.97536,-3.1339 11.04477,-5.6257 16.82118,-8.268 3.3,-1.5095 7.77506,-3.6466 9.94457,-4.7491 2.16951,-1.1024 5.99451,-2.5863 8.5,-3.2976 7.06658,-2.0062 12.4077,-4.1084 16.35431,-6.4369 5.4499,-3.2156 18.72321,-4.0385 55.70112,-3.4536 17.875,0.2827 34.83638,0.4792 37.69196,0.4366 2.85558,-0.043 6.90558,0.3781 9,0.935 2.09442,0.5568 10.50069,1.2637 18.68059,1.5709 8.1799,0.3071 15.21504,0.77 15.63365,1.0287 3.45283,2.134 53.85079,3.9387 56.92542,2.0385 1.75215,-1.0829 0.2945,-2.4043 -3.8973,-3.5331 -2.13468,-0.5748 -6.27818,-2.8484 -9.20778,-5.0524 -2.9296,-2.2041 -7.12654,-4.4442 -9.32654,-4.9781 -2.2,-0.5339 -5.8,-1.92 -8,-3.0802 -6.48451,-3.4199 -17.58932,-8.9019 -23.5,-11.6012 -3.025,-1.3814 -7.3,-3.424 -9.5,-4.539 -10.88738,-5.5179 -13.26363,-6.559 -16.5,-7.2294 -1.925,-0.3987 -5.525,-1.8963 -8,-3.3279 -10.88446,-6.2957 -17.18056,-9.1046 -26.05543,-11.6241 -2.50549,-0.7113 -6.33049,-2.2219 -8.5,-3.357 -9.95405,-5.208 -30.95757,-11.6453 -51.44457,-15.7672 -9.25437,-1.8619 -14.87945,-3.1128 -22,-4.8924 -19.63737,-4.9079 -34.83946,-6.7398 -55.5,-6.6877 -6.6,0.017 -17.175,-0.3923 -23.5,-0.9087 -6.325,-0.5164 -18.19265,-1.1771 -26.37255,-1.4681 -8.1799,-0.2911 -15.32793,-0.8107 -15.88452,-1.1547 -0.55659,-0.344 -3.31394,0.5241 -6.12745,1.9292 -2.81352,1.405 -7.96808,3.932 -11.4546,5.6156 -7.70087,3.7187 -12.70428,6.6995 -16.58411,9.8801 -1.60778,1.318 -4.98278,3.4244 -7.5,4.6807 -2.51722,1.2564 -6.60177,3.3099 -9.07677,4.5634 -2.475,1.2534 -6.22652,3.1498 -8.33671,4.2142 -2.11019,1.0644 -5.71019,3.2926 -8,4.9517 -7.77875,5.636 -17.95438,11.824 -19.44353,11.824 -1.7202,0 -6.9103,3.0637 -12.94976,7.6443 -2.32649,1.7645 -5.25149,3.4856 -6.5,3.8246 -2.3076,0.6265 -9.51477,3.9148 -17.91738,8.1749 -2.55606,1.2959 -5.2111,2.3562 -5.90009,2.3562 -1.23551,0 -8.76999,3.328 -16.32636,7.2114 -2.13061,1.095 -5.83411,3.4872 -8.23,5.316 -2.39589,1.8288 -5.3296,3.6341 -6.51936,4.0117 -1.18976,0.3776 -4.21187,1.9858 -6.71579,3.5737 -2.50392,1.588 -5.20702,2.8872 -6.00689,2.8872 -0.79987,0 -3.74926,1.0943 -6.55422,2.4319 -4.80224,2.2899 -8.95754,3.7859 -19.59991,7.0564 -2.475,0.7606 -6.3,2.0672 -8.5,2.9034 -2.2,0.8363 -4.9,1.5468 -6,1.579 -2.83477,0.083 -9.55369,2.5384 -13.79888,5.0431 -3.52866,2.082 -19.56175,4.3727 -27.20112,3.8864 -6.96121,-0.4431 -7.40402,0.047 -10.02238,11.0998 -1.96083,8.2769 -4.27922,14.9661 -7.02166,20.2594 -1.35621,2.6176 -2.92554,8.0007 -3.4874,11.9623 -0.56186,3.9616 -1.95909,8.792 -3.10495,10.734 -1.14587,1.9421 -2.49557,6.4416 -2.99934,9.9989 -0.50378,3.5573 -1.83747,8.0297 -2.96377,9.9386 -3.22282,5.4623 -5.13753,12.1153 -5.05939,17.5799 0.0395,2.7648 -0.39866,10.4269 -0.97376,17.0269 -0.57511,6.6 -1.02789,15.6 -1.00618,20 0.0217,4.4 -0.39079,9.8 -0.91667,12 -0.52588,2.2 -1.4138,8.5 -1.97315,14 -0.55935,5.5 -1.40193,12.25 -1.87241,15 -2.0771,12.1409 -2.99762,19.4133 -3.1644,25 -0.2865,9.5967 1.06562,35.6763 2.0479,39.5 0.49452,1.925 0.88096,12.738 0.85876,24.0289 -0.0557,28.31694 1.73002,40.52814 8.55053,58.47114 0.83627,2.2 1.54024,5.1252 1.56438,6.5004 0.085,4.844 6.60612,31.612 9.50088,38.9996 1.44451,3.6864 3.72166,10.483 6.03082,18 2.29977,7.4864 4.29023,12.5073 6.3797,16.0926 1.09221,1.8741 2.29055,5.2074 2.66297,7.4074 1.00286,5.9241 2.96437,11.2799 6.59238,18 1.78158,3.3 4.23551,7.8954 5.45318,10.2121 3.21014,6.1073 6.41209,11.1973 10.11433,16.0782 1.78984,2.3597 3.73361,6.1847 4.31947,8.5 1.38434,5.4709 3.57206,11.08 6.57468,16.8571 1.32852,2.556 2.42398,5.256 2.43436,6 0.0187,1.3397 1.95381,4.4644 9.25219,14.9399 2.0741,2.977 5.2241,7.5106 7,10.0746 1.77591,2.564 6.51647,7.514 10.53458,11 4.0181,3.486 8.55881,8.3631 10.09046,10.8381 1.53165,2.475 5.03816,6.975 7.79225,10 2.75409,3.025 6.17679,7.3654 7.60601,9.6453 1.42922,2.28 4.88253,6.0712 7.67402,8.4251 2.79149,2.3538 6.47159,6.5634 8.17801,9.3546 3.64265,5.9584 16.81313,19.2642 25.3536,25.614 11.55282,8.5895 23.5697,16.531 26.34946,17.4132 1.2048,0.3824 4.09405,2.1246 6.42054,3.8715 2.3265,1.747 6.03,4.3964 8.23,5.8877 5.49194,3.7226 13.20476,9.3361 21.00641,15.2886 3.60427,2.75 8.83857,6.575 11.63179,8.5 2.79322,1.925 6.99908,4.917 9.34636,6.6489 2.34728,1.7319 6.011,4.0293 8.14161,5.1054 4.67191,2.3597 10.51473,5.2824 19.87383,9.9414 3.85,1.9165 8.8,4.4045 11,5.5289 2.2,1.1244 6.05955,3.0723 8.57677,4.3287 2.51722,1.2563 5.89222,3.3627 7.5,4.6807 5.43862,4.4584 20.44548,12.6689 23.27585,12.7346 0.74394,0.017 3.44394,1.0917 6,2.3876 4.27304,2.1664 7.58858,3.7222 21.64738,10.1578 9.66075,4.4223 14.22233,5.9658 26.5,8.9669 5.55918,1.3589 12.59105,3.5866 19,6.0191 7.58988,2.8808 20.66252,6.9262 29,8.9743 7.86331,1.9316 14.74517,4.2723 20.5,6.9727 10.78094,5.0589 14.43006,6.2236 23.69093,7.562 3.68002,0.5319 8.18002,1.6149 10,2.4068 6.4559,2.8089 14.02746,4.6711 22.61205,5.5614 13.54827,1.4049 22.06819,2.9063 25.00458,4.4064 1.48084,0.7566 4.26744,1.6983 6.19244,2.0929 1.925,0.3945 5.075,1.6318 7,2.7496 4.75904,2.7633 7.93309,3.7126 27,8.0756 9.83795,2.2512 17.17046,2.76 45,3.1224 14.84651,0.1934 27.38003,0.8145 30,1.4867 8.53378,2.1895 46.02992,4.3331 47.63346,2.7232 z m 287.08267,-106.2699 c 9.0893,-3.9296 16.0662,-7.6021 19.7839,-10.4139 2.2,-1.664 5.575,-4.0365 7.5,-5.2722 4.328,-2.7783 4.8283,-5.5356 1.6857,-9.2901 -1.3296,-1.5883 -3.6629,-5.3629 -5.1852,-8.3879 -1.5223,-3.025 -3.8731,-6.85 -5.2238,-8.5 -2.3052,-2.8159 -4.8233,-6.7476 -12.2644,-19.1493 -4.3643,-7.2739 -12.163,-14.3507 -15.8145,-14.3507 -5.1301,0 -6.0986,2.295 -5.2749,12.5 0.3995,4.95 1.8927,14.4 3.3182,21 3.4757,16.093 4.5983,23.2549 5.3687,34.25 0.3565,5.0875 1.0249,9.25 1.4853,9.25 0.4604,0 2.5398,-0.7362 4.621,-1.6359 z M 1303.0976,958.57576 c 1.0483,-1.784 2.9243,-5.3032 4.1688,-7.8205 1.2445,-2.5172 3.3659,-5.8922 4.7142,-7.5 4.4827,-5.3453 6.7109,-10.6295 6.7109,-15.915 0,-2.7618 0.4718,-6.5934 1.0484,-8.5148 0.5766,-1.9214 1.0488,-7.4805 1.0493,-12.3537 5e-4,-4.8731 0.6135,-10.7231 1.3622,-13 2.5113,-7.6367 2.7507,-12.6562 2.7324,-57.2918 -0.018,-42.8952 -0.4268,-52.9523 -2.2997,-56.5176 -0.4824,-0.9184 -1.3262,-4.8369 -1.8752,-8.7079 -0.5491,-3.871 -1.7099,-8.9697 -2.5798,-11.3303 -1.9437,-5.2749 -2.9111,-9.2498 -4.4521,-18.2921 -1.4591,-8.5619 -3.1924,-14.0415 -5.8853,-18.6057 -1.126,-1.9083 -2.5048,-6.6962 -3.0641,-10.6399 -0.5593,-3.9436 -1.735,-9.1017 -2.6125,-11.4623 -0.8776,-2.3607 -2.0433,-6.3171 -2.5905,-8.7921 -2.399,-10.8517 -6.4902,-22.0349 -9.9077,-27.0821 -2.6008,-3.8411 -7.9722,-11.5793 -13.1965,-19.0113 -1.7759,-2.5264 -4.5643,-6.5764 -6.1964,-9 -1.6321,-2.4236 -4.0312,-5.7221 -5.3312,-7.3298 -1.3,-1.6078 -3.3917,-4.9828 -4.648,-7.5 -1.2564,-2.5173 -3.1939,-6.3768 -4.3054,-8.5768 -1.1116,-2.2 -2.8596,-5.7871 -3.8845,-7.9713 -1.0249,-2.1842 -4.1134,-6.5891 -6.8634,-9.7886 -5.3418,-6.215 -10.5514,-13.1614 -15.9295,-21.2401 -1.8307,-2.75 -5.8514,-7.8222 -8.9349,-11.2715 -3.0836,-3.4493 -6.2606,-7.5364 -7.0601,-9.0824 -0.7995,-1.5461 -5.4185,-6.3083 -10.2645,-10.5826 -4.8461,-4.2744 -10.9982,-10.2139 -13.6714,-13.199 -2.6732,-2.985 -6.151,-6.0947 -7.7285,-6.9105 -1.5775,-0.8157 -5.6903,-4.0101 -9.1396,-7.0986 -7.2407,-6.4833 -10.3042,-8.5255 -22.4363,-14.9559 -11.6999,-6.2014 -16.4518,-9.4939 -24.8352,-17.2079 -3.85,-3.5425 -9.4381,-8.0724 -12.4179,-10.0663 -2.9798,-1.9939 -6.9823,-4.6855 -8.8943,-5.9812 -7.8418,-5.3142 -17.8118,-9.8949 -27.5004,-12.635 -2.6469,-0.7486 -5.8537,-2.0433 -7.1262,-2.8771 -4.448,-2.9144 -15.1232,-8.3053 -17.7541,-8.9656 -1.4593,-0.3662 -4.6571,-2.1955 -7.1063,-4.065 -4.627,-3.5318 -8.0701,-5.437 -18.2008,-10.0712 -3.3,-1.5095 -7.8,-3.6569 -10,-4.7719 -10.8874,-5.5179 -13.2636,-6.559 -16.49997,-7.2294 -1.925,-0.3987 -5.525,-1.9106 -8,-3.3597 -6.3056,-3.6919 -11.1699,-5.8342 -15.116,-6.6572 -1.8612,-0.3882 -4.9173,-1.5888 -6.7914,-2.6681 -4.0268,-2.3189 -10.8879,-4.8088 -13.3077,-4.8293 -0.9432,-0.01 -3.8101,-0.7259 -6.3707,-1.5952 -2.9866,-1.014 -9.004,-1.67475 -16.7849,-1.84308 -14.8595,-0.32146 -28.45159,-1.44719 -31.12929,-2.5782 -1.1,-0.46462 -3.8,-1.08428 -6,-1.37702 -2.2,-0.29274 -7.15,-1.01858 -11,-1.61299 -9.2033,-1.42089 -23.3933,-1.51485 -24.7443,-0.16383 -0.7534,0.7534 -0.6874,4.80912 0.2256,13.86042 1.8406,18.2485 1.9653,21.3161 2.6958,66.2953 0.7279,44.8122 0.8053,70.9442 0.378,127.5 -0.1843,24.3891 0.086,39.1572 0.7535,41.2308 0.655,2.0332 0.7091,4.4427 0.146,6.5 -1.1915,4.3531 -1.4016,17.9835 -0.8534,55.3568 0.4019,27.3966 0.6631,31.4038 2.2005,33.75 1.1639,1.7764 2.6519,2.677 4.4714,2.7063 1.4998,0.024 4.5269,0.7281 6.7269,1.5644 2.2,0.8362 6.025,2.1428 8.5,2.9034 10.9874,3.3765 14.8317,4.7425 19.7595,7.0212 2.8927,1.3376 7.84269,3.6132 10.99999,5.0568 5.9364,2.7143 9.174,4.3016 20.2405,9.9234 3.575,1.8161 7.9707,3.8516 9.7683,4.5234 1.7976,0.6717 5.8573,3.5258 9.0217,6.3424 5.2702,4.691 9.5508,7.1192 25.21,14.3004 3.025,1.3872 7.6377,3.6019 10.2505,4.9215 2.6128,1.3195 5.374,2.3992 6.1361,2.3992 1.4757,0 7.25357,3.606 25.25007,15.7587 3.6979,2.4972 9.7445,4.6744 15.8633,5.712 2.2,0.373 5.8,1.706 8,2.9621 2.2,1.2562 5.2029,2.5725 6.6731,2.9253 1.4702,0.3528 4.6769,2.171 7.1261,4.0405 4.361,3.3288 8.6892,5.8099 15.7008,9.0004 1.925,0.8759 6.2,3.0918 9.5,4.9241 7.1102,3.948 19.0152,9.9654 26,13.1415 2.75,1.2505 7.52,3.4576 10.5999,4.9045 3.08,1.447 6.23,2.6332 7,2.636 0.7701,0 3.2001,1.1138 5.4001,2.4688 2.2,1.355 4.7423,2.4777 5.6495,2.4949 0.9072,0.017 4.0572,1.6522 7,3.6334 2.9428,1.9812 6.6066,4.2524 8.1419,5.0471 1.5353,0.7947 5.2117,3.6367 8.1697,6.3155 5.4494,4.9349 11.5845,8.2461 17.6846,9.5444 3.1423,0.6687 5.5983,1.7579 16.8543,7.4744 2.475,1.2569 6.5595,3.3133 9.0768,4.5697 2.5172,1.2563 5.8922,3.3627 7.5,4.6807 4.1131,3.3719 9.4562,6.3993 12.5963,7.1373 1.4702,0.3455 4.6202,2.1052 7,3.9104 8.7424,6.6316 16.8165,10.9276 22.9429,12.2075 1.8612,0.3888 5.409,1.8805 7.884,3.315 2.475,1.4345 6.525,3.6287 9,4.8761 2.475,1.2475 8.9359,6.5547 14.3576,11.7939 5.4217,5.2392 10.5967,9.523 11.5,9.5195 0.9033,0 2.5001,-1.466 3.5485,-3.25 z M 816.23384,718.59936 c 2.6495,-3.1487 2.7036,-3.467 2.082,-12.25 -0.351,-4.9595 -1.0587,-10.5923 -1.5727,-12.5173 -0.514,-1.925 -1.1976,-11.15 -1.5192,-20.5 -0.7232,-21.0276 -0.8513,-112.4481 -0.1708,-122 0.6006,-8.4313 0.6123,-10.1519 0.2563,-37.5 -0.1539,-11.825 -0.5682,-23.3 -0.9207,-25.5 -0.3524,-2.2 -0.9,-13.675 -1.2168,-25.5 -0.3168,-11.825 -0.9796,-23.075 -1.473,-25 -0.4933,-1.925 -0.8786,-10.0509 -0.8562,-18.0574 0.023,-8.0066 -0.284,-17.2316 -0.681,-20.5 -0.9007,-7.41572 -3.0418,-17.94047 -3.948,-19.40674 -0.3756,-0.6077 -1.11,-5.64367 -1.6319,-11.19103 -0.522,-5.54736 -1.3826,-10.89625 -1.9126,-11.88641 -1.3711,-2.56204 -3.1961,-14.23833 -3.5102,-22.45842 -1.0376,-27.156 -1.7531,-34.01797 -4.0143,-38.5 -5.8994,-11.69333 -7.7653,-15 -8.4642,-15 -1.0869,0 -7.989,7.80806 -7.989,9.03759 0,0.5675 -3.7427,4.9537 -8.3172,9.74712 -8.938,9.36575 -12.0397,14.12343 -15.6623,24.02427 -1.7036,4.65577 -3.7894,7.81304 -7.9598,12.04874 -3.1082,3.15687 -6.2266,7.29282 -6.9297,9.19102 -2.5257,6.81855 -4.2765,9.56842 -9.6573,15.1681 -6.194,6.44587 -9.5209,7.76908 -19.55531,7.77758 -6.1305,0.005 -13.7737,1.78235 -24.6714,5.73646 -6.634,2.40706 -14.8089,8.98973 -27.03449,21.76912 -3.68316,3.85 -8.54593,8.8 -10.80615,11 -4.39455,4.2775 -9.17927,9.8214 -16.40639,19.0097 -2.475,3.1466 -6.92102,8.4817 -9.88005,11.8557 -2.95903,3.374 -6.51771,7.9346 -7.90818,10.1346 -6.30838,9.9811 -15.90763,18.7769 -29.02415,26.5949 -2.92181,1.7415 -7.64681,5.2892 -10.5,7.8837 -2.85319,2.5944 -6.98762,5.9162 -9.18762,7.3817 -2.2,1.4655 -6.25,4.2471 -9,6.1813 -9.87165,6.9431 -13.91259,9.4584 -15.19526,9.4584 -0.71703,0 -3.66643,1.197 -6.55422,2.66 -2.88779,1.463 -7.44169,3.7691 -10.11978,5.1247 -3.03473,1.5361 -7.31731,2.6613 -11.3669,2.9863 -5.16885,0.4149 -7.49874,1.1953 -11.39289,3.8158 -9.20483,6.1944 -18.90955,5.8203 -29.50281,-1.1374 -3.72589,-2.4472 -7.3314,-4.4494 -8.01223,-4.4494 -1.9801,0 -2.54144,1.7848 -1.29427,4.1152 1.62217,3.031 3.74878,29.5712 3.78256,47.2065 0.0258,13.4871 0.36592,17.8371 1.79077,22.906 0.29086,1.0347 2.16604,2.1382 4.67534,2.7512 3.91269,0.9558 9.62735,3.4164 19.18969,8.2628 10.88738,5.5179 13.26363,6.559 16.5,7.2294 1.925,0.3987 5.525,1.8937 8,3.3222 4.56634,2.6354 12.03802,6.3378 22,10.9015 3.025,1.3858 7.3,3.4319 9.5,4.5469 11.25186,5.7026 13.46058,6.6603 16.80946,7.2885 1.9981,0.3749 5.74765,2.0964 8.33234,3.8257 2.5847,1.7292 6.53516,4.3731 8.77882,5.8752 2.24366,1.5021 4.77878,2.7396 5.6336,2.75 0.85482,0.01 3.68295,1.3689 6.28473,3.0189 2.60178,1.65 5.07678,3 5.5,3 0.79681,0 6.01721,3.3715 14.66105,9.4686 2.75,1.9397 7.025,4.8592 9.5,6.4876 4.85485,3.1943 14.08601,13.0854 18.23965,19.5438 6.27707,9.76 7.16667,10.3013 18.76038,11.4145 18.8574,1.8107 29.1034,3.1319 47.5,6.125 6.78541,1.104 8.81421,1.5414 20.50001,4.42 11.886,2.9279 19.5981,4.5405 21.7147,4.5405 1.2185,0 4.3686,0.7355 7.0004,1.6344 2.7649,0.9444 7.529,1.5766 11.2849,1.4974 3.575,-0.075 8.525,0.2758 11,0.7804 2.475,0.5046 7.875,1.4439 12,2.0875 4.125,0.6435 9.075,1.5354 11,1.9818 7.5453,1.75 10.6312,1.2455 13.5423,-2.2142 z M 8.1915,665.28616 c 2.2,-1.2678 5.8,-2.6138 8,-2.9911 4.65346,-0.7979 12.49695,-3.0408 17.5,-5.004 1.925,-0.7554 5.075,-1.8152 7,-2.3551 12.31581,-3.4541 23.60467,-9.0681 33.82693,-16.8222 2.37982,-1.8052 5.52982,-3.5708 7,-3.9236 1.47019,-0.3528 4.51261,-1.7027 6.76093,-2.9997 2.24832,-1.2971 4.67836,-2.3584 5.40008,-2.3584 0.72173,0 3.83219,-1.1839 6.91215,-2.6309 3.07995,-1.4469 8.07491,-3.7588 11.09991,-5.1374 9.53868,-4.3471 13.12043,-6.3368 17.70076,-9.8331 2.44921,-1.8695 5.65599,-3.6877 7.12617,-4.0405 3.14632,-0.7549 9.50792,-4.3319 17.17307,-9.6559 10.36532,-7.1994 14.39279,-9.7022 15.61273,-9.7022 2.35532,0 17.56026,-8.5244 22.8105,-12.7883 1.60778,-1.3058 4.98278,-3.4021 7.5,-4.6584 2.51722,-1.2564 6.37677,-3.1966 8.57677,-4.3116 4.03951,-2.0473 11.41551,-5.4907 21.5,-10.037 9.3307,-4.2065 13.08128,-6.28 17.60383,-9.7321 2.39589,-1.8288 5.34191,-3.638 6.54671,-4.0204 2.14163,-0.6797 7.2906,-3.945 17.34946,-11.0024 8.93175,-6.2666 13.87553,-9.4498 14.67636,-9.4498 4.17607,0 24.87478,-18.6593 31.17385,-28.1024 1.98029,-2.9687 5.17713,-7.6476 7.10408,-10.3976 8.26882,-11.8006 10.68342,-15.2771 13.89108,-20 6.15918,-9.0687 27.71867,-29.7611 37.25846,-35.76 4.32347,-2.7187 11.62421,-10.5559 11.15226,-11.9717 -0.22999,-0.69 -39.0531,-1.5454 -80.75609,-1.7795 -5.225,-0.029 -17.375,-0.7047 -27,-1.501 -9.625,-0.7962 -24.12074,-1.6865 -32.21276,-1.9783 -8.09202,-0.2919 -15.88381,-0.9759 -17.3151,-1.5201 -1.43129,-0.5442 -4.08089,-0.9894 -5.88802,-0.9894 -1.80712,0 -4.59032,-0.4285 -6.1849,-0.9523 -1.59457,-0.5238 -7.62422,-1.4234 -13.39922,-1.9991 -13.44746,-1.3406 -20.38131,-2.3946 -26,-3.9521 -5.90267,-1.6361 -14.73966,-3.8467 -18.5,-4.62766 -1.65,-0.34269 -4.35,-1.22115 -6,-1.95213 -1.65,-0.73099 -4.35,-1.63099 -6,-2 -1.65,-0.36902 -4.35,-1.26902 -6,-2 -1.65,-0.73099 -4.35,-1.63099 -6,-2 -1.65,-0.36902 -4.35,-1.25471 -6,-1.9682 -1.65,-0.71349 -5.025,-1.84766 -7.5,-2.52037 -2.475,-0.67271 -5.93248,-2.30424 -7.68328,-3.62562 -1.7508,-1.32139 -3.46666,-2.40252 -3.81301,-2.40252 -0.59058,0 -7.53047,-3.16074 -18.95005,-8.63071 -2.72049,-1.30311 -5.42049,-2.37366 -6,-2.379 -0.57951,-0.005 -3.02949,-1.58033 -5.44439,-3.5 -2.4149,-1.91966 -4.84743,-3.49029 -5.40561,-3.49029 -0.55818,0 -2.48983,-1.125 -4.29255,-2.5 -1.80272,-1.375 -3.56105,-2.5 -3.9074,-2.5 -0.68531,0 -11.87839,-5.10319 -17.50371,-7.98036 -1.925,-0.98457 -4.625,-2.119 -6,-2.52095 -1.375,-0.40195 -3.901,-1.77958 -5.61333,-3.0614 -1.71233,-1.28182 -4.26586,-2.61985 -5.67452,-2.9734 -1.40865,-0.35355 -4.35419,-2.17756 -6.54563,-4.05335 -2.19145,-1.8758 -4.39442,-3.41054 -4.89549,-3.41054 -0.50107,0 -2.75107,-1.575 -5,-3.5 -2.24893,-1.925 -4.42495,-3.5 -4.8356,-3.5 -0.41066,0 -2.19012,-1.10099 -3.95437,-2.44665 -1.76424,-1.34565 -4.3954,-2.74473 -5.84701,-3.10906 -3.07935,-0.77287 -19.27429,-14.97089 -34.16631,-29.95342 -5.73512,-5.76998 -11.03055,-10.49087 -11.76762,-10.49087 -0.73707,0 -3.10862,-1.47072 -5.27012,-3.26826 -2.1615,-1.79754 -5.20142,-3.91673 -6.75538,-4.70932 -1.55396,-0.79258 -6.05396,-5.13843 -10,-9.65743 -10.0135,-11.46744 -10.64799,-11.30241 -10.76051,2.79873 -0.041,5.13496 -0.75014,16.76128 -1.57593,25.83628 -0.82578,9.075 -1.44493,18.0466 -1.37589,19.93688 0.069,1.89029 -0.2911,4.59029 -0.80031,6 -0.50922,1.40972 -1.61911,5.03812 -2.46642,8.06312 -0.84732,3.025 -3.57075,12.025 -6.05206,20 -5.34384,17.1752 -6.5036,21.57856 -7.71793,29.30332 -0.50175,3.19182 -1.4302,6.77107 -2.06321,7.95387 -0.63302,1.18281 -1.73729,4.19631 -2.45393,6.69668 -1.65257,5.76585 -4.19647,13.53563 -5.90843,18.04613 -1.71345,4.5144 -4.25666,12.2829 -5.91089,18.0554 -0.71799,2.5055 -2.23414,6.3305 -3.36924,8.5 -2.77815,5.3099 -5.27765,12.1103 -9.71987,26.4446 -3.72956,12.0347 -4.75855,14.8481 -7.04404,19.2594 -1.35621,2.6176 -2.91711,7.9412 -3.46867,11.8302 -0.55156,3.889 -1.43009,7.8693 -1.95229,8.845 -0.5222,0.9757 -1.21443,4.8771 -1.5383,8.6697 -0.32386,3.7927 -0.78529,8.1503 -1.02538,9.6838 -0.75713,4.8355 1.96354,4.1563 12.28073,-3.066 5.44747,-3.8133 13.24427,-8.8706 17.32622,-11.2384 4.08195,-2.3678 11.69673,-6.8716 16.92173,-10.0085 5.225,-3.1369 12.425,-7.1699 16,-8.9623 3.575,-1.7924 9.425,-5.3662 13,-7.9416 6.50123,-4.6836 9.89922,-6.7944 28.35387,-17.6132 5.41963,-3.1772 12.16963,-7.6579 15,-9.9572 6.19177,-5.0301 8.82427,-6.5009 11.63525,-6.5009 1.16634,0 4.06989,-0.888 6.45235,-1.9733 6.9532,-3.1676 17.55417,-4.3511 31.99723,-3.5724 9.74807,0.5256 13.86633,1.1708 16.70044,2.6167 2.06895,1.0555 5.92153,2.65 8.56129,3.5433 8.3087,2.8117 17.66291,8.0649 21.45213,12.0471 6.90963,7.2616 8.85175,11.0621 8.80389,17.2281 -0.11926,15.3634 -4.23924,21.5729 -25.95645,39.1206 -5.775,4.6662 -13.65,11.8402 -17.5,15.9422 -3.85,4.102 -10.46411,10.9347 -14.69803,15.1836 -4.23391,4.249 -8.81465,9.929 -10.17942,12.6223 -1.36477,2.6932 -4.09869,6.1303 -6.07537,7.638 -2.30291,1.7565 -5.02612,5.5897 -7.58064,10.6703 -2.19266,4.361 -4.90864,8.4926 -6.03551,9.1813 -2.66855,1.6309 -13.73774,15.611 -22.3696,28.2522 -3.7556,5.5 -9.3558,12.7438 -12.4449,16.0974 -6.75262,7.3308 -24.11653,31.6047 -24.11653,33.7138 0,0.8243 1.9125,2.6087 4.25,3.9653 4.57795,2.6568 9.72813,3.2412 37.69226,4.2769 7.39325,0.2738 13.56554,0.6211 13.71621,0.7717 0.15068,0.1507 3.32666,0.085 7.05774,-0.146 4.66789,-0.2889 8.03141,-1.1389 10.78379,-2.725 z m 408.66467,-101.2041 c 0.52345,-10.5368 -1.65443,-33.3626 -3.52912,-36.9879 -0.89435,-1.7295 -2.07173,-6.2085 -2.6164,-9.9533 -2.01495,-13.8536 -2.75748,-14.944 -11.51915,-16.9147 -4.60086,-1.0349 -8.31553,-3.1829 -13.04782,-7.5449 l -4.3191,-3.9812 -2.60006,2.9181 c -1.43003,1.6049 -3.82248,4.7403 -5.31654,6.9674 -2.65281,3.9543 -6.59283,9.6454 -13.67077,19.7465 -1.92696,2.75 -5.04998,7.25 -6.94005,10 -3.85406,5.6075 -12.42318,14.7351 -20.45102,21.7837 -5.17944,4.5476 -5.27256,4.7204 -3,5.5661 1.28995,0.48 6.84536,1.1651 12.34536,1.5225 5.5,0.3574 12.925,1.135 16.5,1.728 6.31068,1.0467 8.41198,1.5047 20,4.3592 11.9078,2.9333 19.61162,4.543 21.99963,4.5969 1.3752,0.031 4.07537,0.6524 6.00037,1.3807 1.925,0.7284 4.9241,1.378 6.66467,1.4436 l 3.16468,0.1193 0.33532,-6.75 z m 113.5885,-111.244 c 3.28959,-2.1967 8.73903,-6.4549 12.10988,-9.4626 3.37084,-3.0078 7.14313,-5.9946 8.38287,-6.6375 10.68655,-5.5414 20.59497,-14.3789 26.24216,-23.4059 1.03222,-1.65 5.05718,-6.6471 8.94434,-11.1048 3.88717,-4.4576 9.09258,-10.74629 11.56758,-13.9749 2.475,-3.2286 6.33952,-7.68146 8.58782,-9.89524 6.7868,-6.68261 15.51889,-16.78051 18.18125,-21.02506 1.37994,-2.2 4.35891,-6.08154 6.61995,-8.62565 2.26104,-2.54411 7.93598,-9.20697 12.61098,-14.80636 4.675,-5.59939 10.91694,-12.96784 13.87097,-16.37435 2.95406,-3.4065 6.88046,-8.44364 8.72536,-11.19364 1.8449,-2.75 4.931,-7.25 6.858,-10 17.7659,-25.35403 19.509,-28.30709 21.0414,-35.64572 0.3852,-1.84485 1.886,-5.37928 3.3351,-7.85428 3.6485,-6.23148 5.8201,-11.13409 6.6938,-15.11199 0.4083,-1.859 1.3239,-4.7318 2.0347,-6.384 1.2819,-2.98004 3.27,-8.84973 5.9285,-17.50401 0.76031,-2.475 2.08991,-6.42858 2.95471,-8.78574 0.9343,-2.54677 1.6221,-7.86994 1.6951,-13.11914 0.1162,-8.35908 -0.08,-9.22974 -3.6477,-16.21427 -2.07381,-4.05947 -4.56091,-8.95585 -5.52681,-10.88085 -2.0696,-4.12451 -3.9448,-4.46346 -5.5323,-1 -0.6302,1.375 -2.3158,4.975 -3.7457,8 -1.4299,3.025 -2.8773,6.5215 -3.2162,7.77 -0.339,1.24851 -2.1122,4.22963 -3.9404,6.62473 -1.8282,2.3951 -3.8812,5.39572 -4.5621,6.66805 -0.6809,1.27232 -3.1578,4.36619 -5.5042,6.87527 -3.9444,4.21789 -6.9234,9.07133 -13.0704,21.29488 -1.309,2.60312 -4.6327,7.22038 -7.386,10.26059 -2.75319,3.04021 -5.00583,6.33479 -5.00583,7.32129 0,0.98649 -1.2375,3.82008 -2.75,6.29685 -5.85735,9.59162 -15.14446,30.33051 -17.19074,38.38834 -0.55868,2.2 -2.08704,5.575 -3.39634,7.5 -1.30929,1.925 -2.70226,4.5215 -3.09547,5.77 -0.39321,1.24851 -2.14424,4.18391 -3.89119,6.52311 -2.9014,3.88506 -8.4385,12.23597 -11.40909,17.20689 -0.65735,1.1 -3.23638,5.31949 -5.73118,9.37664 -2.49479,4.05715 -4.53599,8.16624 -4.53599,9.13131 0,0.96507 -1.59199,2.96895 -3.53777,4.45306 -3.72881,2.8441 -7.34572,7.95496 -11.11958,15.71247 -1.25046,2.57041 -4.77659,7.47869 -7.83586,10.90728 -3.05927,3.42858 -7.48752,9.20052 -9.84054,12.82652 -4.07398,6.27798 -7.46482,11.3886 -12.38791,18.67082 -3.23294,4.7822 -9.27834,16.386 -9.27834,17.8092 0,1.2022 -2.53907,5.2629 -9.4498,15.1127 -1.92943,2.75 -5.02675,7.25 -6.88293,10 -1.85618,2.75 -4.38235,5.895 -5.6137,6.9888 -2.15534,1.9147 -4.57168,5.5112 -3.70271,5.5112 0.23168,0 3.11272,-1.7973 6.40231,-3.994 z M 385.45266,366.40162 c 3.44363,-0.34515 7.49363,-1.12234 9,-1.72708 1.50636,-0.60475 11.96384,-1.90008 23.23884,-2.87852 l 20.5,-1.77899 3.5,-3.95462 c 3.13905,-3.54678 5.78889,-8.38563 13.54281,-24.73035 1.30459,-2.75 2.64934,-6.0215 2.98833,-7.27 0.33898,-1.24851 2.06003,-4.17351 3.82454,-6.5 6.30625,-8.31475 8.93269,-13.32198 21.36409,-40.73 1.37205,-3.025 3.39388,-7.3 4.49297,-9.5 1.09909,-2.2 3.57049,-7.15 5.49201,-11 5.46677,-10.9534 6.94847,-14.62551 8.06995,-20 0.57384,-2.75 1.77399,-7.925 2.66701,-11.5 0.89301,-3.575 2.09211,-8.75 2.66465,-11.5 0.57254,-2.75 2.22068,-7.025 3.66252,-9.5 1.44185,-2.475 3.92069,-7.2 5.50853,-10.5 3.96799,-8.24661 6.36482,-12.97234 10.15377,-20.0198 1.78005,-3.31089 3.53612,-7.21377 3.90238,-8.67307 0.36626,-1.45929 2.19553,-4.65716 4.06505,-7.10637 1.86953,-2.4492 4.2796,-6.19632 5.35573,-8.32693 1.07613,-2.13061 2.96545,-5.89883 4.19849,-8.37383 1.23305,-2.475 3.77309,-7.34987 5.64453,-10.83305 1.87145,-3.48318 3.40264,-6.88258 3.40264,-7.55422 0,-1.21119 2.67903,-5.48717 9.46858,-15.11273 1.93976,-2.75 4.85283,-7.025 6.47348,-9.499995 3.40815,-5.20479 16.00727,-16.59658 20.49527,-18.53129 7.54509,-3.25257 16.54099,-5.73538 27.06267,-7.46911 8.24442,-1.3585 25.56611,-0.0411 30.12843,2.29142 1.57936,0.80745 4.44657,1.79142 6.37157,2.18658 1.925,0.39517 5.525,1.88721 8.00003,3.31565 4.4702,2.58001 11.9219,6.28055 21.5,10.677 9.2967,4.2673 11.9853,5.5681 17.5,8.46693 l 5.5,2.891065 0.31,-2.347725 c 0.1705,-1.29125 -0.3534,-3.63065 -1.1643,-5.19868 -0.8108,-1.56802 -1.7549,-4.6354 -2.0978,-6.8164 -2.5051,-15.92963 -3.2892,-18.91492 -7.1455,-27.20596 -1.3406,-2.88228 -3.5625,-7.71551 -4.9375,-10.74051 -1.375,-3.025 -3.625,-7.975 -5,-11 -1.375,-3.025 -3.625,-7.975 -5,-11 -1.375,-3.025 -3.625,-7.975 -5,-11 -1.375,-3.025 -3.625,-7.975 -5,-11 -1.375,-3.025 -3.5741,-7.86677 -4.887,-10.75949 -2.125,-4.68228 -3.9399,-8.39656 -11.36519,-23.25948 -1.09909,-2.2 -3.13626,-6.475 -4.52704,-9.5 -5.54857,-12.06832 -8.86904,-18.72883 -10.74094,-21.54519 -1.08016,-1.625145 -2.41955,-4.614815 -2.97643,-6.643705 -0.73875,-2.69152 -3.28527,-5.8008 -9.41855,-11.5 -4.62332,-4.29611 -9.52516,-9.79098 -10.89297,-12.21083 -2.54551,-4.50335 -3.92512,-5.31397 -14.65681,-8.61193 -7.53049,-2.31421 -14.3169,-4.58817 -18,-6.03136 -6.64864,-2.60522 -22.50017,-6.4219 -26.99963,-6.50088 -1.3752,-0.0241 -4.30037,-0.6935 -6.50037,-1.48746 -12.22802,-4.41297 -58.71733,-4.69905 -81,-0.49844 -10.81453,2.03869 -17.3108,2.98011 -24.5,3.55045 -4.125,0.32725 -9.11696,1.01733 -11.09323,1.5335 -1.97628,0.51618 -9.85128,1.17117 -17.5,1.45555 -7.64873,0.28437 -16.15677,0.93943 -18.90677,1.45568 -17.08087,3.20654 -21.77417,4.05278 -28.5,5.13874 -4.125,0.66604 -8.36665,1.64827 -9.4259,2.18274 -1.05924,0.53448 -5.55924,1.31262 -10,1.72921 -4.44075,0.41659 -10.3241,1.45967 -13.0741,2.31796 -16.82711,5.2518 -19.88597,6.58121 -25.42515,11.05004 -1.96617,1.58624 -5.37485,3.71771 -7.57485,4.7366 -2.2,1.01889 -5.83572,3.09605 -8.07938,4.61592 -11.52012,7.8038 -13.93896,9.26494 -15.3664,9.28228 -0.85482,0.0104 -3.40345,1.24789 -5.66362,2.75 -7.62126,5.065105 -12.86916,8.715025 -17.1206,11.907385 -2.32649,1.74695 -5.25149,3.48617 -6.5,3.86494 -1.2485,0.37877 -3.17,1.50318 -4.27,2.49869 -2.62533,2.37594 -12.35302,6.16898 -13.69461,5.33983 -0.6434,-0.39764 -0.81809,-2.62695 -0.4517,-5.76407 l 0.59747,-5.11565 -6.63864,-7.33877 c -4.92384,-5.443125 -8.34008,-8.175945 -13.22558,-10.579785 -3.62282,-1.78255 -8.83694,-4.55511 -11.58694,-6.16123 l -5,-2.92022 -24,0 -24,0 -6.5,2.81543 c -3.575,1.54848 -9.3817,3.89598 -12.90378,5.21667 -8.09552,3.0356 -14.46511,8.429425 -18.26614,15.467905 -2.71613,5.02954 -2.92399,6.09877 -2.43003,12.5 0.2971,3.85 1.68505,10.3602 3.08434,14.46712 3.07081,9.01285 7.23205,13.80399 12.75636,14.68737 2.09197,0.33452 4.04516,0.99911 4.34043,1.47686 0.29527,0.47776 1.61946,0.86865 2.94265,0.86865 2.60531,0 4.98658,3.22752 4.09517,5.5505 -0.49888,1.30005 -3.65879,3.23026998 -11.2593,6.87767 -1.72716,0.82885 -4.55679,3.29547 -6.28806,5.48138 -1.73128,2.18591 -4.81814,4.99862 -6.85971,6.25048 -2.04156,1.25185 -5.61543,3.71978 -7.94193,5.48429 -2.32649,1.76451 -5.25149,3.48556 -6.5,3.82454 -2.15501,0.58512 -8.44142,3.41847 -17.27,7.78377 -2.2,1.08779 -6.25,3.44435 -9,5.23679 -8.48774,5.53229 -19.41913,12.85378 -24.32143,16.28971 -10.35118,7.25495 -13.65613,9.22087 -15.50141,9.22087 -1.74549,0 -6.27845,4.18737 -35.19242,32.50943 -3.93575,3.855175 -8.42335,9.030175 -9.97243,11.499995 -1.54909,2.46981 -5.05384,6.95035 -7.78834,9.95675 -2.7345,3.0064 -6.1095,7.2814 -7.5,9.5 -1.3905,2.2186 -4.74096,6.46675 -7.44547,9.44033 -4.75784,5.23121 -11.7785,15.31478 -11.7785,16.91713 0,0.91483 -4.20128,7.35775 -9.89615,15.17636 -8.1659,11.21113 -8.98241,12.57433 -9.58335,16 -0.56681,3.23114 -0.12079,4.05779 5.80635,10.76133 6.37336,7.20821 14.30531,14.21035 16.11843,14.22896 0.51991,0.005 2.09491,1.10625 3.5,2.44647 1.4051,1.34022 3.81513,3.08744 5.35562,3.88273 4.42139,2.28254 22.55509,18.61253 25.66047,23.10809 1.5472,2.23983 4.55133,5.70648 6.67586,7.70367 2.12452,1.99719 5.43777,5.75623 7.36277,8.35343 4.88043,6.58465 23.64795,23.27909 26.99667,24.01459 1.52284,0.33447 4.58061,2.15897 6.79503,4.05443 2.21443,1.89547 4.4362,3.4463 4.93727,3.4463 0.50107,0 2.75107,1.575 5,3.5 2.24893,1.925 4.42495,3.5 4.8356,3.5 0.41066,0 2.2216,1.125 4.02432,2.5 1.80272,1.375 3.56105,2.5 3.9074,2.5 0.68531,0 11.87839,5.10319 17.50371,7.98036 1.925,0.98457 4.625,2.119 6,2.52095 1.375,0.40195 3.85,1.73884 5.5,2.97087 1.65,1.23203 4.125,2.57541 5.5,2.9853 1.375,0.40989 4.07895,1.98362 6.00878,3.49716 1.92983,1.51355 6.65483,4.21073 10.5,5.99374 3.84517,1.78302 8.56622,4.0474 10.49122,5.03198 1.925,0.98457 4.625,2.119 6,2.52095 1.375,0.40195 3.85,1.73884 5.5,2.97087 1.65,1.23203 4.125,2.58487 5.5,3.00632 1.375,0.42145 2.95,1.09788 3.5,1.50318 0.55,0.40529 2.49843,1.02115 4.32984,1.36857 1.8314,0.34743 4.7564,1.26853 6.5,2.04689 1.74359,0.77837 4.52016,1.71714 6.17016,2.08615 1.65,0.36902 4.35,1.25455 6,1.96786 2.82335,1.22055 7.69282,2.59302 21.25,5.98932 12.12814,3.03831 15.04851,3.57477 24.75,4.54643 5.5,0.55086 12.925,1.51915 16.5,2.15175 3.575,0.6326 8.975,1.08904 12,1.01432 3.44856,-0.0852 6.80546,0.51014 9,1.59609 2.13238,1.05519 6.23524,1.8081 10.5,1.92684 3.85,0.10719 14.20376,0.47917 23.00835,0.82662 10.31129,0.40691 16.99167,0.25787 18.7714,-0.41878 1.89603,-0.72087 5.0313,-0.73765 9.99165,-0.0535 17.08455,2.35643 60.69391,3.22271 77.48976,1.53931 z M 466.1915,198.83976 c -11.01834,-1.63684 -21.99299,-6.74956 -28.9022,-13.46455 -5.41055,-5.25844 -12.46969,-19.83899 -18.17644,-37.54315 -2.92793,-9.08339 -3.38276,-11.84916 -3.37116,-20.5 0.01,-7.22763 0.42045,-10.53815 1.4816,-11.94113 0.80751,-1.06762 1.4682,-2.95356 1.4682,-4.19098 0,-1.23742 0.44852,-2.52706 0.99672,-2.86586 0.54819,-0.3388 1.9173,-2.75597 3.04247,-5.37148 2.4234,-5.633365 12.4394,-15.725575 16.59354,-16.719825 1.577,-0.37743 6.75865,-1.97425 11.51477,-3.54848 10.45125,-3.45926 17.89764,-3.74179 22.62667,-0.8585 1.80079,1.09794 3.90059,1.99626 4.66622,1.99626 3.43052,0 16.7319,10.39178 22.65928,17.702695 6.87762,8.48296 8.44989,12.66815 9.87926,26.2973 1.1927,11.37247 -2.14797,39.26991 -5.4761,45.73011 -0.78484,1.52344 -2.17727,4.89978 -3.0943,7.50297 -2.16338,6.14125 -6.47476,10.88922 -13.8497,15.25217 -6.3504,3.75685 -10.53134,4.23494 -22.05883,2.52245 z m 15.95163,-12.42304 c 1.86306,-0.77844 3.86198,-2.30213 4.44204,-3.38598 0.58006,-1.08385 2.62675,-2.8982 4.54819,-4.03188 2.2294,-1.31537 3.70643,-3.07543 4.08188,-4.86402 0.32359,-1.54153 1.42967,-4.65846 2.45796,-6.92651 1.45553,-3.2104 2.02678,-7.76438 2.57923,-20.5616 l 0.70962,-16.43787 -4.78011,-8.9384 c -2.62906,-4.91612 -5.38993,-9.64883 -6.13528,-10.51714 -0.74534,-0.86831 -1.35516,-1.93813 -1.35516,-2.37738 0,-1.14089 -15.04861,-15.688945 -17.79933,-17.207275 -1.87546,-1.03522 -4.14355,-0.99342 -12.30372,0.22671 -14.52001,2.17106 -21.51396,5.35809 -24.00066,10.936685 -0.49033,1.1 -1.28932,2.675 -1.77553,3.5 -2.46789,4.18755 -4.94492,11.18852 -6.04375,17.0818 -1.03052,5.52688 -0.98516,7.45024 0.283,12 3.1724,11.3816 7.82325,24.65241 10.67411,30.45773 1.63123,3.32175 2.96588,6.705 2.96588,7.51834 0,1.59437 7.3189,10.93333 9.58627,12.23215 0.75853,0.4345 6.12664,0.93671 11.92913,1.11602 5.80249,0.1793 10.83527,0.6113 11.18396,0.95998 1.07299,1.073 5.19487,0.70501 8.75227,-0.78136 z m -23.24356,-13.06304 c -2.55896,-2.15322 -3.02728,-3.36679 -3.56962,-9.25 -0.51679,-5.60616 -0.21733,-7.95645 1.73996,-13.6558 1.30029,-3.78629 2.152,-7.69553 1.89268,-8.68718 -0.25933,-0.99166 -3.13831,-4.12254 -6.39774,-6.9575 -6.91697,-6.0162 -9.87335,-11.17692 -9.87335,-17.23514 0,-8.74116 9.0803,-13.31432 21.37043,-10.7629 6.62463,1.37527 13.07246,6.80202 16.66615,14.0269 1.23107,2.475 3.0233,5.5056 3.98273,6.73467 1.03102,1.32079 2.0253,5.0014 2.43126,9 0.37776,3.72093 1.14344,8.52773 1.7015,10.68177 0.69101,2.66722 0.68451,5.21896 -0.0204,8 -0.56926,2.24596 -1.31219,6.24005 -1.65096,8.87576 -0.42773,3.32787 -1.54363,5.84877 -3.65193,8.25 l -3.03599,3.4578 -9.31969,0 c -8.46035,0 -9.59126,-0.22852 -12.26506,-2.47838 z M 155.6915,-11.111415 c -1.925,-0.3741 -6.875,-0.48618 -11,-0.24907 -6.68186,0.3841 -7.7078,0.19994 -9.40499,-1.68816 -1.3458,-1.4972 -3.10702,-2.12362 -6,-2.13403 -6.78901,-0.0244 -11.62581,-3.78678 -13.15829,-10.23526 -0.85463,-3.59616 0.34392,-3.46974 5.13328,0.54145 4.72069,3.95368 11.06666,5.57157 21.59725,5.50619 4.21699,-0.0262 10.67887,0.55101 14.35973,1.28265 6.80974,1.35356 10.09998,0.96692 26.47302,-3.11083 1.925,-0.47943 5.525,-1.3187 8,-1.86505 2.475,-0.54635 6.30797,-1.87835 8.51771,-2.96 2.20974,-1.08164 5.80974,-2.27092 8,-2.64284 6.57732,-1.11686 7.48229,-1.55015 7.48229,-3.58253 0,-1.0704 0.52102,-2.78046 1.15782,-3.80014 0.70663,-1.13149 0.83029,-2.58755 0.31734,-3.73643 -0.46227,-1.03536 -1.32079,-4.12387 -1.90782,-6.86337 -1.00821,-4.70496 -1.4688,-5.24561 -8.31425,-9.75935 -6.93637,-4.573695 -7.56906,-4.784595 -14.76442,-4.921355 -4.13463,-0.0786 -7.78108,0.12068 -8.10323,0.44282 -1.02328,1.023285 0.64322,2.703915 4.12281,4.157785 2.32005,0.96938 4.01396,2.73847 5.43162,5.67268 2.56196,5.30265 2.57161,6.96541 0.0689,11.87113 -2.21902,4.34963 -6.80335,7.08946 -18.52122,11.06922 -8.89881,3.02231 -22.30586,3.14092 -27.60887,0.24425 -8.38276,-4.57894 -13.75971,-9.23589 -13.84272,-11.98912 -0.0198,-0.65606 0.87796,-2.74183 1.99498,-4.63503 1.71582,-2.9081 1.84608,-3.84794 0.83949,-6.05716 -1.91043,-4.19293 -5.59744,-3.47609 -11.15802,2.16938 -2.59183,2.63139 -4.71241,5.59946 -4.71241,6.59571 0,0.99624 -0.67192,3.00579 -1.49315,4.46565 -0.82123,1.45986 -2.00159,4.00429 -2.62301,5.65429 l -1.12986,3 -1.25019,-3 c -0.68761,-1.65 -1.5465,-5.04858 -1.90864,-7.55241 -0.55831,-3.86016 -0.21664,-5.37924 2.24694,-9.98989 3.60001,-6.73751 7.90042,-10.29426 16.21589,-13.411735 3.54311,-1.32831 9.36702,-3.65758 12.94202,-5.17615 6.39911,-2.71818 6.82621,-2.76134 27.51744,-2.7809 l 21.01745,-0.0199 4.98255,2.8857 c 2.74041,1.58713 7.90756,4.33801 11.48256,6.11305 6.176,3.066505 9.96727,6.342665 14.83226,12.817065 3.56268,4.74127 2.66851,14.24204 -1.79904,19.11514 -1.00846,1.1 -1.99687,2.89855 -2.19646,3.99678 -0.48614,2.67479 -5.82591,5.10376 -14.33676,6.52153 -3.85,0.64135 -8.575,1.77954 -10.5,2.52932 -1.925,0.74978 -6.87026,1.85409 -10.98948,2.45403 -4.11921,0.59993 -8.80084,1.74499 -10.40363,2.54456 -2.99279,1.493 -11.30994,1.73406 -17.60689,0.5103 z m 684.90664,25.69348 c 2.1216,-10.62428 3.0934,-26.56772 3.0934,-50.75 0,-27.442635 -0.94,-39.634645 -4.4335,-57.500005 -1.2905,-6.6 -2.8612,-16.275 -3.4904,-21.5 -2.382,-19.7806 -13.1575,-58.43839 -20.0612,-71.97083 -1.1082,-2.17222 -2.0149,-4.44037 -2.0149,-5.04032 0,-0.59995 -1.8158,-5.45538 -4.035,-10.78984 -11.8622,-28.51319 -36.0645,-74.60995 -45.0077,-85.72345 -3.5515,-4.41344 -9.3823,-11.80693 -12.9573,-16.42999 -3.575,-4.62306 -8.4071,-10.68706 -10.738,-13.47556 -2.3309,-2.78851 -5.9753,-7.32001 -8.0987,-10.07001 -14.5883,-18.89383 -47.76381,-52.20306 -72.25231,-72.54345 -18.34865,-15.24061 -26.33937,-20.86994 -54.09275,-38.10734 -22.81231,-14.16855 -41.72113,-23.27819 -72.31828,-34.84054 -9.9,-3.74111 -20.19906,-7.75891 -22.8868,-8.92845 -8.29872,-3.61108 -26.49221,-7.92561 -40.1132,-9.51273 -62.26237,-7.25482 -67.7214,-7.40196 -95.89866,-2.58482 -11.93736,2.0408 -16.48843,3.56627 -14.9587,5.01402 0.47155,0.44627 7.12339,1.32284 14.78187,1.94794 46.55985,3.80028 90.14469,16.40002 153.07549,44.25186 18.45842,8.1693 62.04015,34.9702 84.2837,51.83087 19.78049,14.99366 23.95196,18.42053 38.08127,31.28383 22.24456,20.25146 42.94626,42.87875 67.73507,74.03558 6.7457,8.47868 25.672,36.44118 31.9154,47.15323 3.2057,5.5 8.1836,13.825 11.0621,18.5 20.4046,33.13882 35.9183,65.89022 49.4998,104.5 10.1445,28.8388 18.3086,66.588435 22.9247,106.000005 1.6749,14.3 3.2682,27.0125 3.5407,28.25 0.8346,3.79027 2.2622,2.51711 3.3639,-3 z M 38.16973,-77.25464 c 2.43845,-2.24768 6.08126,-7.08435 8.09514,-10.74815 2.01388,-3.66381 6.24205,-9.41998 9.39594,-12.79149 8.82253,-9.43131 10.03954,-12.72753 11.227,-30.40755 1.06099,-15.79713 0.76704,-19.38246 -1.66563,-20.31596 -0.81762,-0.31375 -5.44337,1.41032 -10.27945,3.83127 -10.3223,5.16736 -24.4664,17.50709 -26.12202,22.78963 -1.66699,5.31883 -2.6436,48.40422 -1.13828,50.21802 2.17666,2.62272 5.8178,1.72842 10.4873,-2.57577 z m 734.97211,-41.15884 c -5.9832,-18.34902 -15.7068,-40.81081 -27.0976,-62.5963 -4.2153,-8.06199 -9.8435,-18.84119 -12.5069,-23.95379 -6.15,-11.80506 -10.1252,-18.01551 -20.3008,-31.71589 -4.49811,-6.05633 -9.81831,-13.5751 -11.82271,-16.70836 -2.0043,-3.13327 -7.5993,-9.92899 -12.4332,-15.10162 -4.834,-5.17262 -11.2641,-12.41906 -14.2891,-16.10321 -14.682,-17.88119 -20.83153,-24.85521 -24.50003,-27.785 -2.2,-1.75699 -8.51646,-7.49108 -14.03658,-12.74241 -14.14663,-13.4578 -34.37982,-30.77098 -44.96342,-38.4744 -32.89163,-23.94065 -67.19282,-45.58074 -79.42875,-50.11038 -5.41862,-2.00593 -22.41774,-9.59482 -33.07125,-14.76396 -13.28183,-6.4444 -65.26979,-21.09231 -89.22962,-25.14095 -12.13625,-2.05074 -53.98201,-3.48756 -69.69767,-2.39315 -31.00063,2.15884 -52.46642,5.64063 -67.2178,10.90285 -19.05436,6.79722 -32.15084,14.6951 -40.09485,24.17933 -2.34303,2.79732 -7.95986,8.85107 -12.48184,13.45278 -8.53046,8.68087 -19.19052,21.86814 -23.28077,28.8 -1.29814,2.2 -5.49619,8.31974 -9.329,13.59942 -9.25988,12.75548 -14.04699,21.73955 -12.54689,23.54705 0.61783,0.74444 2.00609,1.35353 3.08503,1.35353 2.17221,0 24.31119,-10.09652 35.37872,-16.13453 3.89692,-2.12601 7.75458,-3.86547 8.57258,-3.86547 0.818,0 5.72961,-2.08418 10.91469,-4.63151 9.04979,-4.44599 24.63536,-9.30645 29.97678,-9.34845 1.40215,-0.011 6.80215,-1.36679 12,-3.01283 11.54001,-3.65443 34.19713,-8.32174 50.76434,-10.45731 6.77254,-0.873 13.29754,-2.20031 14.5,-2.94957 2.03506,-1.26807 14.70705,-2.422 45.1863,-4.11477 5.5,-0.30546 15.4,-1.01425 22,-1.57509 14.31811,-1.21669 43.95707,0.14655 56,2.57572 9.69402,1.95536 51.87336,15.91652 64.72713,21.42436 5.10008,2.18539 14.44787,6.6547 20.77287,9.93181 6.325,3.27711 13.975,6.98561 17,8.24112 6.5305,2.71045 11.27057,5.77931 24,15.53831 5.225,4.00573 15.35,11.65825 22.5,17.00559 18.95016,14.17244 32.43393,25.21204 45.95203,37.62242 12.15399,11.15805 13.4472,12.6063 24.9619,27.95451 3.5917,4.78737 15.4305,17.45343 26.3085,28.14679 10.8781,10.69336 21.475,21.85141 23.54871,24.79568 11.8455,16.81799 36.9467,55.36561 40.1643,61.6798 2.8791,5.64985 14.0936,22.56743 17.629,26.594 3.9997,4.55537 4.7106,3.46301 2.3859,-3.66612 z m -486.45034,-16.2091 c 3.575,-0.31789 8.3,-1.2259 10.5,-2.01778 2.2,-0.79189 5.49487,-1.45955 7.32193,-1.48369 1.82706,-0.0241 5.22196,-1.15738 7.54422,-2.51832 2.41678,-1.41632 7.19667,-2.9148 11.17807,-3.50427 3.82568,-0.56642 8.75578,-1.46719 10.95578,-2.00172 2.2,-0.53453 5.83236,-0.9826 8.07191,-0.99572 2.23956,-0.0131 10.78956,-1.12999 19,-2.48193 8.21045,-1.35193 18.07809,-2.96187 21.92809,-3.57765 3.85,-0.61577 8.8,-1.50463 11,-1.97526 2.2,-0.47062 8.5,-0.8864 14,-0.92396 5.5,-0.0376 12.7,-0.51042 16,-1.05081 3.3,-0.54039 10.5,-1.44573 16,-2.01186 5.5,-0.56613 12.25,-1.45364 15,-1.97225 12.33181,-2.32559 17.86133,-3.04328 30.5,-3.95866 7.425,-0.53777 18.89844,-0.96692 25.49653,-0.95367 14.17008,0.0285 41.42848,2.26222 44.11763,3.61533 1.03721,0.5219 5.26084,1.50488 9.38584,2.1844 4.125,0.67953 9.3,1.68312 11.5,2.2302 2.2,0.54709 6.23273,1.45035 8.96163,2.00724 2.7289,0.5569 6.26811,1.68814 7.8649,2.51388 4.46264,2.30772 4.95072,0.31155 1.2679,-5.18545 -1.83631,-2.74087 -5.936,-9.03341 -9.11044,-13.98341 -4.76677,-7.43298 -10.75243,-13.92615 -34.37785,-37.29269 -15.73338,-15.56098 -31.53114,-30.69987 -35.10614,-33.64196 -7.09981,-5.84289 -26.20043,-18.70319 -37.90524,-25.52131 -4.07289,-2.37248 -10.72743,-7.39396 -14.78787,-11.15886 -8.63986,-8.01098 -13.12097,-10.79752 -23.18381,-14.41667 -4.0573,-1.45923 -12.6073,-4.90245 -19,-7.65159 -8.70203,-3.74225 -16.90068,-6.22056 -32.62308,-9.86139 -11.55,-2.67463 -23.25,-5.56356 -26,-6.41984 -2.75,-0.85628 -10.36903,-2.44687 -16.93119,-3.53466 -10.79061,-1.78871 -15.14023,-1.92532 -45.5,-1.42898 -43.7911,0.71592 -63.6699,2.97984 -79.94064,9.10413 -3.51852,1.32437 -9.42112,3.04402 -13.11687,3.82144 -11.63946,2.44844 -47.56053,15.81616 -56.72343,21.10915 -2.31667,1.33823 -7.71667,5.62596 -12,9.52828 -4.28333,3.90233 -9.85013,8.97802 -12.37067,11.27932 -3.76489,3.43743 -5.16637,5.78166 -7.85261,13.13491 -3.81454,10.44185 -9.06459,30.41311 -9.06459,34.48184 0,1.54977 1.40816,6.33447 3.12924,10.63267 2.65833,6.63885 3.12003,9.06238 3.06804,16.10438 -0.0695,9.41732 -1.19552,13.58091 -5.60386,20.72128 -3.68234,5.96444 -4.23096,13.3624 -1.32037,17.80453 2.93852,4.48475 7.11367,3.73529 23.72695,-4.25911 18.06593,-8.69341 27.24972,-10.59913 46.91892,-9.7361 15.53441,0.6816 20.97715,2.14428 38.08108,10.23384 11.6461,5.5082 18.79588,8.36583 42.62924,17.03806 2.27108,0.82638 6.99608,3.25307 10.5,5.39265 3.50392,2.13957 7.27076,3.72586 8.37076,3.52508 1.1,-0.20078 4.925,-0.62515 8.5,-0.94304 z m -229.5,-67.91811 c 11.04612,-5.67632 12.17563,-6.52264 14.2094,-10.64687 1.98834,-4.03211 8.2906,-25.40088 8.2906,-28.11056 0,-1.49772 -3.57711,-0.69942 -15.46448,3.45118 -10.3574,3.6164 -13.70571,6.20166 -15.04884,11.61939 -0.34901,1.40779 -2.85129,7.80392 -5.56062,14.21364 -5.27292,12.47463 -5.58513,13.7869 -3.72309,15.64894 1.61609,1.61609 3.31365,1.00999 17.29703,-6.17572 z m 26.3734,-97.65557 c 4.8747,-2.21185 14.8985,-9.04862 19.27231,-13.14476 2.24013,-2.09791 2.85429,-3.55511 2.85429,-6.77234 0,-3.36563 0.69311,-4.85588 3.87283,-8.32692 2.13006,-2.32521 5.05723,-6.57948 6.50482,-9.45393 1.4476,-2.87445 4.58262,-8.27445 6.96673,-12 5.31211,-8.30106 14.65562,-25.6086 14.65562,-27.1475 0,-0.61943 -0.51037,-1.12623 -1.13416,-1.12623 -1.6717,0 -19.74329,16.84769 -23.06187,21.5 -5.98295,8.3875 -16.49655,22.00623 -21.14618,27.39159 -5.42154,6.27941 -15.30841,21.01964 -17.17661,25.60841 -2.3634,5.8051 0.57272,7.01971 8.39222,3.47168 z"
       id="path3036"
       inkscape:connector-curvature="0" />
  </g>
</svg>
